<svg xmlns="http://www.w3.org/2000/svg" width="588.146" height="528.723" viewBox="0 0 588.146 528.723">
  <g id="undraw_pending_approval_xuu9" transform="translate(-0.001)">
    <path id="Path_336" data-name="Path 336" d="M820.213,304.449a10.741,10.741,0,0,0-9.823-6.572H614.324A10.634,10.634,0,0,0,603.7,308.506V556.549a10.634,10.634,0,0,0,10.628,10.628H810.4a10.642,10.642,0,0,0,10.628-10.628V308.506a10.437,10.437,0,0,0-.806-4.056Zm-1.555,252.1a8.278,8.278,0,0,1-8.268,8.268H614.324a8.269,8.269,0,0,1-8.268-8.265V308.507a8.279,8.279,0,0,1,8.268-8.268H810.4a8.309,8.309,0,0,1,7.674,5.2,9.143,9.143,0,0,1,.311.933,8.2,8.2,0,0,1,.283,2.134Z" transform="translate(-305.411 -206.851)" fill="#3f3d56"/>
    <path id="Path_388" data-name="Path 388" d="M623.549,492.173l-128.208,2.255a15.392,15.392,0,1,1-.541-30.778l128.208-2.254a7.208,7.208,0,0,1,7.333,7.08l.288,16.364a7.208,7.208,0,0,1-6.6,7.309Q623.791,492.168,623.549,492.173Z" transform="translate(-322.704 -184.05)" fill="#6ba229"/>
    <path id="Path_389" data-name="Path 389" d="M598.144,496.824l-105.183,4.8a7.207,7.207,0,0,1-7.529-6.871l-1.113-24.385a7.208,7.208,0,0,1,6.872-7.529l105.184-4.8a7.207,7.207,0,0,1,7.529,6.871l1.113,24.385a7.217,7.217,0,0,1-6.6,7.512C598.326,496.814,598.235,496.82,598.144,496.824Z" transform="translate(-322.058 -184.519)" fill="#2f2e41"/>
    <path id="Path_390" data-name="Path 390" d="M428.108,693.26V556.849a7.216,7.216,0,0,1,7.208-7.208h16.367a7.216,7.216,0,0,1,7.208,7.208V693.26a7.216,7.216,0,0,1-7.208,7.208H435.315a7.216,7.216,0,0,1-7.207-7.208Z" transform="translate(-329.895 -171.744)" fill="#6ba229"/>
    <path id="Path_391" data-name="Path 391" d="M465.8,693.26V556.849a7.216,7.216,0,0,1,7.208-7.208h16.367a7.216,7.216,0,0,1,7.208,7.208V693.26a7.216,7.216,0,0,1-7.208,7.208H473.01a7.216,7.216,0,0,1-7.208-7.208Z" transform="translate(-324.639 -171.744)" fill="#6ba229"/>
    <circle id="Ellipse_71" data-name="Ellipse 71" cx="56.554" cy="56.554" r="56.554" transform="translate(88.883 122.43)" fill="#6ba229"/>
    <path id="Path_392" data-name="Path 392" d="M497.243,396.528a13.412,13.412,0,0,0,4.9-2.875,9.019,9.019,0,0,0,2.636-7.14,6.068,6.068,0,0,0-2.7-4.67c-2.022-1.3-4.727-1.3-7.481-.087l.1-22.078-2.218-.011-.123,25.955,1.709-1.075c1.982-1.244,4.811-2.12,6.811-.837a3.9,3.9,0,0,1,1.687,3.015,6.816,6.816,0,0,1-1.96,5.324c-2.449,2.339-6.022,3.071-10.1,3.725l.351,2.19A36.55,36.55,0,0,0,497.243,396.528Z" transform="translate(-321.194 -198.235)" fill="#2f2e41"/>
    <rect id="Rectangle_127" data-name="Rectangle 127" width="11.945" height="2.218" transform="translate(184.529 161.889) rotate(-7.523)" fill="#2f2e41"/>
    <rect id="Rectangle_128" data-name="Rectangle 128" width="11.945" height="2.218" transform="translate(147.151 166.824) rotate(-7.523)" fill="#2f2e41"/>
    <path id="Path_393" data-name="Path 393" d="M367.369,371.476l81.2,99.242a15.391,15.391,0,1,1-23.824,19.492l-81.2-99.242a7.207,7.207,0,0,1,1.014-10.143l12.667-10.365a7.209,7.209,0,0,1,10.143,1.014Z" transform="translate(-341.914 -196.957)" fill="#6ba229"/>
    <path id="Path_394" data-name="Path 394" d="M392.232,390.915l66.676,81.492a7.207,7.207,0,0,1-1.014,10.143l-21.636,17.7a7.207,7.207,0,0,1-10.143-1.014l-66.676-81.492a7.216,7.216,0,0,1,1.014-10.143l21.636-17.7a7.208,7.208,0,0,1,10.143,1.014Z" transform="translate(-339.698 -194.246)" fill="#2f2e41"/>
    <path id="Path_337" data-name="Path 337" d="M765.613,350.428H706.554a4.725,4.725,0,1,1,0-9.45h59.058a4.725,4.725,0,0,1,0,9.45Z" transform="translate(-291.727 -200.841)" fill="#3f3d56"/>
    <path id="Path_338" data-name="Path 338" d="M765.613,372.2H706.554a4.725,4.725,0,1,1,0-9.45h59.058a4.725,4.725,0,0,1,0,9.45Z" transform="translate(-291.727 -197.805)" fill="#3f3d56"/>
    <path id="Path_339" data-name="Path 339" d="M685.314,390.97H642.156a5.321,5.321,0,0,1-5.316-5.316V334.724a5.321,5.321,0,0,1,5.316-5.316h43.159a5.321,5.321,0,0,1,5.316,5.316v50.931A5.321,5.321,0,0,1,685.314,390.97Z" transform="translate(-300.789 -202.454)" fill="#6ba229"/>
    <path id="Path_340" data-name="Path 340" d="M774.359,416.772H640.888a4.725,4.725,0,0,1,0-9.45H774.359a4.725,4.725,0,1,1,0,9.45Z" transform="translate(-300.884 -191.589)" fill="#ccc"/>
    <path id="Path_341" data-name="Path 341" d="M774.359,438.541H640.888a4.725,4.725,0,0,1,0-9.45H774.359a4.725,4.725,0,1,1,0,9.45Z" transform="translate(-300.884 -188.554)" fill="#ccc"/>
    <path id="Path_342" data-name="Path 342" d="M774.359,460.309H640.888a4.725,4.725,0,0,1,0-9.45H774.359a4.725,4.725,0,1,1,0,9.45Z" transform="translate(-300.884 -185.519)" fill="#ccc"/>
    <path id="Path_343" data-name="Path 343" d="M774.359,482.078H640.888a4.725,4.725,0,1,1,0-9.45H774.359a4.725,4.725,0,1,1,0,9.45Z" transform="translate(-300.884 -182.483)" fill="#ccc"/>
    <path id="Path_344" data-name="Path 344" d="M774.359,503.847H640.888a4.725,4.725,0,1,1,0-9.45H774.359a4.725,4.725,0,1,1,0,9.45Z" transform="translate(-300.884 -179.448)" fill="#ccc"/>
    <circle id="Ellipse_44" data-name="Ellipse 44" cx="67.639" cy="67.639" r="67.639" transform="translate(452.868 0)" fill="#6ba229"/>
    <circle id="Ellipse_72" data-name="Ellipse 72" cx="7.959" cy="7.959" r="7.959" transform="translate(511.239 98.279)" fill="#fff"/>
    <path id="Path_395" data-name="Path 395" d="M799.617,238.343a23.032,23.032,0,0,0-22.8,22.634c0,.115,0,.922,0,1.978a5.839,5.839,0,0,0,5.838,5.839h0a5.842,5.842,0,0,0,5.841-5.843v0c0-.718,0-1.216,0-1.246a11.073,11.073,0,1,1,17.046,9.322l0,0s-8.31,5.35-10.843,12.688h0a16.263,16.263,0,0,0-.67,4.631c0,.645.038,6.284.111,10.862a6.019,6.019,0,0,0,6.019,5.921h0a6.02,6.02,0,0,0,6.02-6.02v-.037c-.026-4.192-.039-9.073-.039-9.428,0-4.506,4.347-9,7.918-11.924a24.015,24.015,0,0,0,8.259-13.149,15.017,15.017,0,0,0,.432-3.259,22.968,22.968,0,0,0-22.968-22.969Z" transform="translate(-281.271 -215.153)" fill="#fff"/>
    <path id="Path_396" data-name="Path 396" d="M468.065,364.359c10.126-6.657,22.851-3.662,34.105-2.792,10.169.786,22.222.012,29.374-8.3,7.441-8.643,6.819-21.477.659-30.619-6.064-9-16.129-14.681-26.778-16.179a42.96,42.96,0,0,0-33.386,9.22l3.619,1.5c-2.109-20.162-16.933-38.389-36.823-43.333-20.124-5-42.629,3.535-53.365,21.478-10.584,17.689-9.331,42.372,5.9,57.072,7.317,7.06,17.269,10.656,27.369,8.737,9.315-1.77,17.592-8.56,19.335-18.15,1.616-8.889-1.914-18.986-10.561-22.869a17.24,17.24,0,0,0-15.069.241,14.647,14.647,0,0,0-7.427,11.717,12.948,12.948,0,0,0,1.378,6.764c1.2,2.45,4.858.3,3.661-2.14a9.831,9.831,0,0,1,2.031-10.791c3.143-3.283,8.1-3.829,12.281-2.486,7.642,2.456,11.016,11.223,9.576,18.661-1.613,8.33-8.725,13.683-16.822,15.054-8.806,1.49-17.394-2.228-23.506-8.482-12.8-13.1-13.91-34.192-5.274-49.824,8.761-15.858,27.448-24.373,45.249-21.713,17.6,2.63,32.1,16.475,36.615,33.546a42.96,42.96,0,0,1,1.208,6.519,2.153,2.153,0,0,0,3.619,1.5c15.041-12.491,40.057-11.152,52.389,4.563,6.048,7.707,7.831,19.674.768,27.415-6.725,7.371-17.893,7.379-27.078,6.571-11.75-1.033-24.667-3.461-35.192,3.458-2.271,1.493-.149,5.166,2.14,3.661Z" transform="translate(-336.805 -210.397)" fill="#2f2e41"/>
    <path id="Path_397" data-name="Path 397" d="M508.289,602.731h-84.8a6.367,6.367,0,0,1-6.36-6.36V568.1a6.367,6.367,0,0,1,6.36-6.36h84.8a6.367,6.367,0,0,1,6.36,6.36V596.37A6.367,6.367,0,0,1,508.289,602.731Z" transform="translate(-331.426 -170.057)" fill="#2f2e41"/>
    <path id="Path_398" data-name="Path 398" d="M512.235,480.751C509.58,467.173,499.268,456.42,485.884,452c4.833-1.555,7.906-3.858,7.906-6.434,0-4.683-10.124-8.48-22.614-8.48s-22.614,3.8-22.614,8.48c0,2.613,3.156,4.948,8.112,6.5-20.519,6.117-35.412,23.975-35.412,45,0,0-6.316,40.49-11.275,72.857-3.173,20.707,14.163,39.215,36.723,39.215h79.343c5.2,0,9.426-3.92,9.426-8.738C535.481,600.406,520.86,524.857,512.235,480.751Z" transform="translate(-332.474 -187.439)" fill="#2f2e41"/>
  </g>
</svg>
