<svg xmlns="http://www.w3.org/2000/svg" width="14.6" height="16" viewBox="0 0 14.6 16">
  <g id="Component_4_61" data-name="Component 4 – 61" transform="translate(0.5 0.5)">
    <path id="Path_14" data-name="Path 14" d="M3,8.533A1.522,1.522,0,0,1,4.511,7H15.089A1.522,1.522,0,0,1,16.6,8.533v8.433A1.522,1.522,0,0,1,15.089,18.5H4.511A1.522,1.522,0,0,1,3,16.967Z" transform="translate(-3 -3.5)" fill="none" stroke="#707070" stroke-linecap="round" stroke-linejoin="round" stroke-width="1"/>
    <path id="Path_15" data-name="Path 15" d="M8,7.6V4.8A3.081,3.081,0,0,1,11.3,2h0a3.081,3.081,0,0,1,3.3,2.8V7.382" transform="translate(-4.5 -2)" fill="none" stroke="#707070" stroke-linecap="round" stroke-linejoin="round" stroke-width="1"/>
  </g>
</svg>
