<svg xmlns="http://www.w3.org/2000/svg" width="69.602" height="69.619" viewBox="0 0 69.602 69.619">
  <g id="Outline" transform="translate(-2 -1.993)">
    <path id="Path_9" data-name="Path 9" d="M70.442,66.889h-2.32V30.928a1.16,1.16,0,0,0-1.16-1.16H54.2v-11.6a1.16,1.16,0,0,0-1.16-1.16H20.56a1.16,1.16,0,0,0-1.16,1.16v11.6H6.64a1.16,1.16,0,0,0-1.16,1.16V66.889H3.16a1.16,1.16,0,1,0,0,2.32H70.442a1.16,1.16,0,1,0,0-2.32Zm-51.041,0H7.8v-34.8H19.4Zm16.24,0H31V51.809h4.64Zm6.96,0h-4.64V51.809H42.6Zm9.28-35.961V66.889h-6.96V51.809h1.16a1.16,1.16,0,1,0,0-2.32H27.521a1.16,1.16,0,0,0,0,2.32h1.16v15.08H21.72V19.328H51.881ZM65.8,66.889H54.2v-34.8H65.8Z" transform="translate(0 2.403)" fill="#fff"/>
    <path id="Path_10" data-name="Path 10" d="M22.16,27.968H26.8a1.16,1.16,0,0,0,1.16-1.16v-4.64a1.16,1.16,0,0,0-1.16-1.16H22.16A1.16,1.16,0,0,0,21,22.168v4.64A1.16,1.16,0,0,0,22.16,27.968Zm1.16-4.64h2.32v2.32H23.32Z" transform="translate(3.04 3.043)" fill="#fff"/>
    <path id="Path_11" data-name="Path 11" d="M30.16,27.968H34.8a1.16,1.16,0,0,0,1.16-1.16v-4.64a1.16,1.16,0,0,0-1.16-1.16H30.16A1.16,1.16,0,0,0,29,22.168v4.64A1.16,1.16,0,0,0,30.16,27.968Zm1.16-4.64h2.32v2.32H31.32Z" transform="translate(4.321 3.043)" fill="#fff"/>
    <path id="Path_12" data-name="Path 12" d="M38.16,27.968H42.8a1.16,1.16,0,0,0,1.16-1.16v-4.64a1.16,1.16,0,0,0-1.16-1.16H38.16A1.16,1.16,0,0,0,37,22.168v4.64A1.16,1.16,0,0,0,38.16,27.968Zm1.16-4.64h2.32v2.32H39.32Z" transform="translate(5.601 3.043)" fill="#fff"/>
    <path id="Path_13" data-name="Path 13" d="M22.16,35.968H26.8a1.16,1.16,0,0,0,1.16-1.16v-4.64a1.16,1.16,0,0,0-1.16-1.16H22.16A1.16,1.16,0,0,0,21,30.168v4.64A1.16,1.16,0,0,0,22.16,35.968Zm1.16-4.64h2.32v2.32H23.32Z" transform="translate(3.04 4.323)" fill="#fff"/>
    <path id="Path_14" data-name="Path 14" d="M30.16,35.968H34.8a1.16,1.16,0,0,0,1.16-1.16v-4.64a1.16,1.16,0,0,0-1.16-1.16H30.16A1.16,1.16,0,0,0,29,30.168v4.64A1.16,1.16,0,0,0,30.16,35.968Zm1.16-4.64h2.32v2.32H31.32Z" transform="translate(4.321 4.323)" fill="#fff"/>
    <path id="Path_15" data-name="Path 15" d="M38.16,35.968H42.8a1.16,1.16,0,0,0,1.16-1.16v-4.64a1.16,1.16,0,0,0-1.16-1.16H38.16A1.16,1.16,0,0,0,37,30.168v4.64A1.16,1.16,0,0,0,38.16,35.968Zm1.16-4.64h2.32v2.32H39.32Z" transform="translate(5.601 4.323)" fill="#fff"/>
    <path id="Path_16" data-name="Path 16" d="M22.16,43.968H26.8a1.16,1.16,0,0,0,1.16-1.16v-4.64a1.16,1.16,0,0,0-1.16-1.16H22.16A1.16,1.16,0,0,0,21,38.168v4.64A1.16,1.16,0,0,0,22.16,43.968Zm1.16-4.64h2.32v2.32H23.32Z" transform="translate(3.04 5.603)" fill="#fff"/>
    <path id="Path_17" data-name="Path 17" d="M30.16,43.968H34.8a1.16,1.16,0,0,0,1.16-1.16v-4.64a1.16,1.16,0,0,0-1.16-1.16H30.16A1.16,1.16,0,0,0,29,38.168v4.64A1.16,1.16,0,0,0,30.16,43.968Zm1.16-4.64h2.32v2.32H31.32Z" transform="translate(4.321 5.603)" fill="#fff"/>
    <path id="Path_18" data-name="Path 18" d="M38.16,43.968H42.8a1.16,1.16,0,0,0,1.16-1.16v-4.64a1.16,1.16,0,0,0-1.16-1.16H38.16A1.16,1.16,0,0,0,37,38.168v4.64A1.16,1.16,0,0,0,38.16,43.968Zm1.16-4.64h2.32v2.32H39.32Z" transform="translate(5.601 5.603)" fill="#fff"/>
    <path id="Path_19" data-name="Path 19" d="M28.643,12.734a1.16,1.16,0,1,0,.812,2.173,9.1,9.1,0,0,1,6.4,0,1.16,1.16,0,1,0,.812-2.173,11.445,11.445,0,0,0-8.025,0Z" transform="translate(4.143 1.603)" fill="#fff"/>
    <path id="Path_20" data-name="Path 20" d="M40.057,11.023a1.16,1.16,0,0,0,.535-2.189,16.24,16.24,0,0,0-14.941,0,1.16,1.16,0,1,0,1.067,2.059,13.92,13.92,0,0,1,12.807,0,1.16,1.16,0,0,0,.532.13Z" transform="translate(3.68 0.803)" fill="#fff"/>
    <path id="Path_21" data-name="Path 21" d="M43.762,7.175a1.16,1.16,0,0,0,.6-2.153,20.764,20.764,0,0,0-21.6,0,1.161,1.161,0,1,0,1.2,1.985,18.435,18.435,0,0,1,19.189,0,1.16,1.16,0,0,0,.6.168Z" transform="translate(3.234 0)" fill="#fff"/>
    <path id="Path_22" data-name="Path 22" d="M10.16,38.968H14.8a1.16,1.16,0,0,0,1.16-1.16v-4.64a1.16,1.16,0,0,0-1.16-1.16H10.16A1.16,1.16,0,0,0,9,33.168v4.64A1.16,1.16,0,0,0,10.16,38.968Zm1.16-4.64h2.32v2.32H11.32Z" transform="translate(1.12 4.803)" fill="#fff"/>
    <path id="Path_23" data-name="Path 23" d="M50.16,38.968H54.8a1.16,1.16,0,0,0,1.16-1.16v-4.64a1.16,1.16,0,0,0-1.16-1.16H50.16A1.16,1.16,0,0,0,49,33.168v4.64A1.16,1.16,0,0,0,50.16,38.968Zm1.16-4.64h2.32v2.32H51.32Z" transform="translate(7.521 4.803)" fill="#fff"/>
    <path id="Path_24" data-name="Path 24" d="M10.16,46.968H14.8a1.16,1.16,0,0,0,1.16-1.16v-4.64a1.16,1.16,0,0,0-1.16-1.16H10.16A1.16,1.16,0,0,0,9,41.168v4.64A1.16,1.16,0,0,0,10.16,46.968Zm1.16-4.64h2.32v2.32H11.32Z" transform="translate(1.12 6.083)" fill="#fff"/>
    <path id="Path_25" data-name="Path 25" d="M50.16,46.968H54.8a1.16,1.16,0,0,0,1.16-1.16v-4.64a1.16,1.16,0,0,0-1.16-1.16H50.16A1.16,1.16,0,0,0,49,41.168v4.64A1.16,1.16,0,0,0,50.16,46.968Zm1.16-4.64h2.32v2.32H51.32Z" transform="translate(7.521 6.083)" fill="#fff"/>
  </g>
</svg>
