<svg xmlns="http://www.w3.org/2000/svg" width="84.971" height="84.957" viewBox="0 0 84.971 84.957">
  <g id="contract" transform="translate(0 -0.039)">
    <path id="Path_242" data-name="Path 242" d="M242.9,99.167a4.25,4.25,0,0,0-7.788-1.02l-.708,1.232a1.416,1.416,0,0,0-1.926.51l-3.6,6.13-1.232-.708a1.415,1.415,0,1,0-1.416,2.45l1.232.708-12.036,20.857-2.974,7.944-1.416,2.647a4.248,4.248,0,0,0,.227,4.588l-3.186,3.908-.892-2.237a2.832,2.832,0,0,0-5.055-.4l-.51.864-.481-5.664a2.832,2.832,0,0,0-5.508-.665l-3.483,10.45a1.416,1.416,0,0,0,.892,1.784,1.226,1.226,0,0,0,.439.113,1.416,1.416,0,0,0,1.345-.962l3.469-10.45.5,5.748a2.832,2.832,0,0,0,5.253,1.218l.524-.864.878,2.223a2.831,2.831,0,0,0,4.842.722l3.3-4.177a4.361,4.361,0,0,0,1.119.142,4.248,4.248,0,0,0,3.7-2.1l1.416-2.365,5.395-6.556,12.163-21.112,1.232.708a1.42,1.42,0,0,1,.524,1.94l-5.664,9.813a1.406,1.406,0,1,0,2.393,1.473l5.664-9.813a4.246,4.246,0,0,0-1.558-5.806l-1.232-.708,3.54-6.131a1.416,1.416,0,0,0-.51-1.926l.708-1.232a4.246,4.246,0,0,0,.425-3.285Zm-5.338.4a1.416,1.416,0,0,1,.864-.665,1.487,1.487,0,0,1,1.076.142,1.417,1.417,0,0,1,.666.864,1.487,1.487,0,0,1-.142,1.076l-.708,1.232-2.464-1.416Zm-19.3,39.534-.708-.411-2.1-1.218,2.011-5.38,4.46,2.577Zm-4.248,4.092a1.415,1.415,0,0,1-.425-1.855l.708-1.231,2.463,1.416-.708,1.218a1.415,1.415,0,0,1-2.039.453Zm9.529-10.846-4.9-2.832,11.328-19.626,4.9,2.832Zm12.744-22.075-4.9-2.832,2.832-4.9,4.9,2.832Zm0,0" transform="translate(-158.08 -78.992)" fill="#fff"/>
    <path id="Path_243" data-name="Path 243" d="M77.742,356.937l-5.012,5-3-3a1.417,1.417,0,1,0-2,2.01l3,3a2.855,2.855,0,0,0,4.007,0l5-5.013a1.416,1.416,0,0,0-2-2Zm0,0" transform="translate(-55.398 -293.449)" fill="#fff"/>
    <path id="Path_244" data-name="Path 244" d="M32,324.076a12.036,12.036,0,1,0,24.071,0,1.416,1.416,0,0,0-2.832,0,9.2,9.2,0,1,1-3.682-7.363,1.416,1.416,0,0,0,1.7-2.266A12.036,12.036,0,0,0,32,324.076Zm0,0" transform="translate(-26.336 -256.78)" fill="#fff"/>
    <path id="Path_245" data-name="Path 245" d="M110.231,50.871a1.416,1.416,0,1,0,0-2.832H73.416A1.416,1.416,0,0,0,72,49.455v5.664a1.416,1.416,0,0,0,1.416,1.416h36.815a1.416,1.416,0,1,0,0-2.832h-35.4V50.871Zm0,0" transform="translate(-59.256 -39.504)" fill="#fff"/>
    <path id="Path_246" data-name="Path 246" d="M97.416,112.039a1.416,1.416,0,0,0,0,2.832h28.319a1.416,1.416,0,1,0,0-2.832Zm0,0" transform="translate(-79.009 -92.177)" fill="#fff"/>
    <path id="Path_247" data-name="Path 247" d="M160.567,168.039H129.416a1.416,1.416,0,1,0,0,2.832h31.151a1.416,1.416,0,1,0,0-2.832Zm0,0" transform="translate(-105.345 -138.265)" fill="#fff"/>
    <path id="Path_248" data-name="Path 248" d="M87.151,217.455a1.416,1.416,0,0,0-1.416-1.416H57.416a1.416,1.416,0,1,0,0,2.832H85.735A1.416,1.416,0,0,0,87.151,217.455Zm0,0" transform="translate(-46.088 -177.769)" fill="#fff"/>
    <path id="Path_249" data-name="Path 249" d="M259.328,216.039h-9.912a1.416,1.416,0,1,0,0,2.832h9.912a1.416,1.416,0,1,0,0-2.832Zm0,0" transform="translate(-204.106 -177.769)" fill="#fff"/>
    <path id="Path_250" data-name="Path 250" d="M71.575,258.871a1.416,1.416,0,1,0,0-2.832H57.416a1.416,1.416,0,1,0,0,2.832Zm0,0" transform="translate(-46.088 -210.69)" fill="#fff"/>
    <path id="Path_251" data-name="Path 251" d="M169.416,258.871h9.912a1.416,1.416,0,1,0,0-2.832h-9.912a1.416,1.416,0,1,0,0,2.832Zm0,0" transform="translate(-138.265 -210.69)" fill="#fff"/>
    <path id="Path_252" data-name="Path 252" d="M63.718,65.173A1.416,1.416,0,0,0,62.3,66.589V80.748a1.416,1.416,0,0,1-1.416,1.416H4.248a1.416,1.416,0,0,1-1.416-1.416V4.287A1.416,1.416,0,0,1,4.248,2.871H60.886A1.416,1.416,0,0,1,62.3,4.287V30.879a1.416,1.416,0,1,0,2.832,0V4.287A4.248,4.248,0,0,0,60.886.039H4.248A4.248,4.248,0,0,0,0,4.287V80.748A4.248,4.248,0,0,0,4.248,85H60.886a4.248,4.248,0,0,0,4.248-4.248V66.589A1.416,1.416,0,0,0,63.718,65.173Zm0,0" fill="#fff"/>
  </g>
</svg>
