<svg xmlns="http://www.w3.org/2000/svg" width="95.035" height="95.032" viewBox="0 0 95.035 95.032">
  <g id="cooperate" transform="translate(0 -0.008)">
    <g id="Group_239" data-name="Group 239" transform="translate(0 0.028)">
      <g id="Group_238" data-name="Group 238" transform="translate(0)">
        <path id="Path_236" data-name="Path 236" d="M94.492,36.637a1.857,1.857,0,0,0-2.625,0L78.457,50.046a1.857,1.857,0,0,0-.544,1.312v7.029a14.768,14.768,0,0,1-.194,2.368L64.25,47.287l-3.03-3.032a9.721,9.721,0,0,0-14.349.656L37.65,56a3.522,3.522,0,0,1-5.939-3.651L38.7,36.2a10.236,10.236,0,0,1,9.4-6.172h8.486a1.857,1.857,0,0,0,1.312-.544l26.2-26.2A1.856,1.856,0,0,0,81.475.66L55.816,26.318H48.1a13.948,13.948,0,0,0-4.233.658,14.6,14.6,0,0,0-9.527-3.505H33.308L10.5.668A1.856,1.856,0,0,0,7.88,3.293L31.226,26.64a1.857,1.857,0,0,0,1.312.544h1.8a10.927,10.927,0,0,1,5.782,1.641,13.938,13.938,0,0,0-4.827,5.9L28.3,50.87a7.232,7.232,0,0,0,12.2,7.5l9.221-11.085a6.008,6.008,0,0,1,8.869-.405l1.282,1.283.009.01,1.705,1.706.033.033h0l15.5,15.5A3.061,3.061,0,1,1,72.8,69.743l-7.564-7.564-4.55-4.55a1.856,1.856,0,1,0-2.625,2.625L62.608,64.8h0l7.564,7.564A3.061,3.061,0,1,1,65.845,76.7l-7.564-7.564-4.55-4.55a1.856,1.856,0,0,0-2.625,2.625l4.549,4.549h0l7.564,7.564a3.059,3.059,0,0,1-3.783,4.76,6.888,6.888,0,0,0-.464-.513l-3.547-3.547a1.852,1.852,0,0,0-.535-.371l-8.114-8.114a1.856,1.856,0,0,0-2.625,2.625L56.266,86.275a6.884,6.884,0,0,0,.513.464,3.06,3.06,0,0,1-4.76,3.783l-1.9-1.9a6.773,6.773,0,0,0-5.494-10.733c-.063,0-.125,0-.188,0a6.765,6.765,0,0,0-6.765-6.958c-.063,0-.125,0-.188,0a6.765,6.765,0,0,0-6.765-6.958c-.063,0-.125,0-.188,0a6.77,6.77,0,0,0-11.555-4.974l-1.408,1.408A19.2,19.2,0,0,1,12.8,48.435L21.836,39.4a1.856,1.856,0,0,0-2.625-2.625l-8.282,8.282L3.169,37.3A1.856,1.856,0,0,0,.544,39.922l8.542,8.542A22.891,22.891,0,0,0,15.1,63.236a6.776,6.776,0,0,0,1.118,8.105h0a6.752,6.752,0,0,0,4.789,1.98c.062,0,.123,0,.185,0,0,.063,0,.125,0,.188a6.729,6.729,0,0,0,1.984,4.789h0a6.752,6.752,0,0,0,4.789,1.981c.062,0,.123,0,.185,0,0,.063,0,.125,0,.188a6.729,6.729,0,0,0,1.984,4.789h0a6.752,6.752,0,0,0,4.789,1.981c.062,0,.123,0,.185,0,0,.063,0,.125,0,.188A6.729,6.729,0,0,0,37.083,92.2h0a6.781,6.781,0,0,0,9.579,0l.894-.894L49.4,93.148a6.773,6.773,0,0,0,11.562-4.789c0-.034,0-.067,0-.1l.1,0A6.765,6.765,0,0,0,67.821,81.3c.063,0,.125,0,.188,0a6.765,6.765,0,0,0,6.765-6.958c.063,0,.125,0,.188,0a6.772,6.772,0,0,0,5.774-10.311,18.4,18.4,0,0,0,.889-5.652V52.128h0L94.492,39.262A1.856,1.856,0,0,0,94.492,36.637ZM18.847,68.715a3.064,3.064,0,0,1,0-4.329L21.6,61.635a3.061,3.061,0,0,1,4.329,4.329l-2.752,2.752A3.065,3.065,0,0,1,18.847,68.715ZM25.8,75.669a3.064,3.064,0,0,1,0-4.329l2.752-2.752a3.061,3.061,0,0,1,4.329,4.329l-2.752,2.752A3.064,3.064,0,0,1,25.8,75.669Zm11.282,6.954a3.061,3.061,0,1,1-4.329-4.329l2.752-2.752a3.061,3.061,0,0,1,4.329,4.329Zm9.706,4.2-2.752,2.752a3.064,3.064,0,0,1-4.329,0h0a3.064,3.064,0,0,1,0-4.329L42.46,82.5a3.061,3.061,0,0,1,4.329,4.329Z" transform="translate(0 -0.116)" fill="#fff"/>
      </g>
    </g>
    <g id="Group_241" data-name="Group 241" transform="translate(45.662 6.379)">
      <g id="Group_240" data-name="Group 240">
        <path id="Path_237" data-name="Path 237" d="M247.86,34.333A1.856,1.856,0,0,0,246,36.189v8.572a1.856,1.856,0,0,0,3.712,0V36.189A1.856,1.856,0,0,0,247.86,34.333Z" transform="translate(-246.004 -34.333)" fill="#fff"/>
      </g>
    </g>
    <g id="Group_243" data-name="Group 243" transform="translate(45.662 0.008)">
      <g id="Group_242" data-name="Group 242" transform="translate(0 0)">
        <path id="Path_238" data-name="Path 238" d="M249.172.552A1.856,1.856,0,0,0,246,1.864,1.856,1.856,0,1,0,249.172.552Z" transform="translate(-246.004 -0.008)" fill="#fff"/>
      </g>
    </g>
    <g id="Group_245" data-name="Group 245" transform="translate(53.954 11.835)">
      <g id="Group_244" data-name="Group 244">
        <path id="Path_239" data-name="Path 239" d="M297.379,64.267a1.857,1.857,0,0,0-2.625,0L291.219,67.8a1.856,1.856,0,1,0,2.625,2.625l3.535-3.535A1.856,1.856,0,0,0,297.379,64.267Z" transform="translate(-290.675 -63.724)" fill="#fff"/>
      </g>
    </g>
    <g id="Group_247" data-name="Group 247" transform="translate(33.835 11.835)">
      <g id="Group_246" data-name="Group 246">
        <path id="Path_240" data-name="Path 240" d="M188.816,67.627l-3.36-3.36a1.856,1.856,0,0,0-2.625,2.625l3.36,3.36a1.856,1.856,0,0,0,2.625-2.625Z" transform="translate(-182.287 -63.724)" fill="#fff"/>
      </g>
    </g>
    <g id="Group_249" data-name="Group 249" transform="translate(23.388 31.423)">
      <g id="Group_248" data-name="Group 248">
        <path id="Path_241" data-name="Path 241" d="M129.172,169.8a1.855,1.855,0,1,0,.544,1.312A1.865,1.865,0,0,0,129.172,169.8Z" transform="translate(-126.004 -169.258)" fill="#fff"/>
      </g>
    </g>
  </g>
</svg>
