<svg xmlns="http://www.w3.org/2000/svg" width="94.999" height="94.773" viewBox="0 0 94.999 94.773">
  <g id="cooperation" transform="translate(0.245)">
    <g id="Group_251" data-name="Group 251" transform="translate(-0.018 17.375)">
      <g id="Group_250" data-name="Group 250">
        <path id="Path_253" data-name="Path 253" d="M83.716,106.955h-.175a11.057,11.057,0,1,0-15.445,0H65.321a7.9,7.9,0,0,0-6.9,4.063L52.776,121.17H42l-5.641-10.153a7.9,7.9,0,0,0-6.9-4.063H26.677a11.057,11.057,0,1,0-15.445,0h-.175A11.07,11.07,0,0,0,0,118.011v17.375a1.579,1.579,0,0,0,1.58,1.58H7.9v26.852a1.579,1.579,0,0,0,1.58,1.58H28.432a1.579,1.579,0,0,0,1.58-1.58V124.7l3.325,6.651a1.581,1.581,0,0,0,1.414.874H60.023a1.581,1.581,0,0,0,1.414-.874l3.325-6.651v39.116a1.579,1.579,0,0,0,1.58,1.58H85.3a1.579,1.579,0,0,0,1.58-1.58V136.966h6.318a1.579,1.579,0,0,0,1.58-1.58V118.011A11.07,11.07,0,0,0,83.716,106.955Zm-72.659-7.9a7.9,7.9,0,1,1,7.9,7.9A7.907,7.907,0,0,1,11.057,99.057Zm34.75,30.011H35.726l-5.881-11.763a1.58,1.58,0,0,0-2.993.706v44.227H20.534V135.386H17.375v26.852H11.057V118.011H7.9v15.8H3.159v-15.8a7.907,7.907,0,0,1,7.9-7.9h18.4a4.742,4.742,0,0,1,4.143,2.437l6.092,10.965a1.578,1.578,0,0,0,1.381.813h4.739ZM67.92,99.057a7.9,7.9,0,1,1,7.9,7.9A7.907,7.907,0,0,1,67.92,99.057Zm23.693,34.75H86.875v-15.8H83.716v44.227H77.4V135.386H74.239v26.852H67.92V118.011a1.58,1.58,0,0,0-2.993-.708l-5.881,11.764H48.966V124.33H53.7a1.578,1.578,0,0,0,1.381-.813l6.092-10.965a4.742,4.742,0,0,1,4.143-2.437h18.4a7.907,7.907,0,0,1,7.9,7.9Z" transform="translate(0 -88)" fill="#fff"/>
      </g>
    </g>
    <g id="Group_253" data-name="Group 253" transform="translate(31.573)">
      <g id="Group_252" data-name="Group 252">
        <path id="Path_254" data-name="Path 254" d="M175.8,0a15.8,15.8,0,1,0,15.8,15.8A15.813,15.813,0,0,0,175.8,0Zm0,28.432A12.636,12.636,0,1,1,188.432,15.8,12.651,12.651,0,0,1,175.8,28.432Z" transform="translate(-160)" fill="#fff"/>
      </g>
    </g>
    <g id="Group_255" data-name="Group 255" transform="translate(42.63 6.318)">
      <g id="Group_254" data-name="Group 254">
        <path id="Path_255" data-name="Path 255" d="M219.259,37.764a1.58,1.58,0,0,1,3.06.554h3.159a4.732,4.732,0,0,0-3.159-4.448V32h-3.159v1.87A4.732,4.732,0,0,0,216,38.318a1.573,1.573,0,0,0,.463,1.117l5.756,5.756a1.58,1.58,0,0,1-3.06-.554H216a4.732,4.732,0,0,0,3.159,4.448v1.87h3.159v-1.87a4.732,4.732,0,0,0,3.159-4.448,1.573,1.573,0,0,0-.463-1.117Z" transform="translate(-216 -32)" fill="#fff"/>
      </g>
    </g>
    <g id="Group_257" data-name="Group 257" transform="translate(79.084 7.714)">
      <g id="Group_256" data-name="Group 256" transform="translate(0 0)">
        <rect id="Rectangle_93" data-name="Rectangle 93" width="3" height="3" transform="translate(-0.329 0.059)" fill="#fff"/>
      </g>
    </g>
    <g id="Group_259" data-name="Group 259" transform="translate(72.99 7.714)">
      <g id="Group_258" data-name="Group 258" transform="translate(0 0)">
        <rect id="Rectangle_94" data-name="Rectangle 94" width="3" height="3" transform="translate(-0.236 0.059)" fill="#fff"/>
      </g>
    </g>
    <g id="Group_261" data-name="Group 261" transform="translate(66.026 7.714)">
      <g id="Group_260" data-name="Group 260" transform="translate(0 0)">
        <rect id="Rectangle_95" data-name="Rectangle 95" width="4" height="3" transform="translate(-0.271 0.059)" fill="#fff"/>
      </g>
    </g>
    <g id="Group_263" data-name="Group 263" transform="translate(85.178 7.714)">
      <g id="Group_262" data-name="Group 262" transform="translate(0 0)">
        <rect id="Rectangle_96" data-name="Rectangle 96" width="4" height="3" transform="translate(-0.423 0.059)" fill="#fff"/>
      </g>
    </g>
    <g id="Group_265" data-name="Group 265" transform="translate(91.271 7.714)">
      <g id="Group_264" data-name="Group 264" transform="translate(0 0)">
        <rect id="Rectangle_97" data-name="Rectangle 97" width="3" height="3" transform="translate(0.483 0.059)" fill="#fff"/>
      </g>
    </g>
    <g id="Group_267" data-name="Group 267" transform="translate(91.271 13.808)">
      <g id="Group_266" data-name="Group 266" transform="translate(0 0)">
        <rect id="Rectangle_98" data-name="Rectangle 98" width="3" height="4" transform="translate(0.483 -0.035)" fill="#fff"/>
      </g>
    </g>
    <g id="Group_269" data-name="Group 269" transform="translate(91.271 20.772)">
      <g id="Group_268" data-name="Group 268" transform="translate(0 0)">
        <rect id="Rectangle_99" data-name="Rectangle 99" width="3" height="3" transform="translate(0.483 0)" fill="#fff"/>
      </g>
    </g>
    <g id="Group_271" data-name="Group 271" transform="translate(91.271 26.867)">
      <g id="Group_270" data-name="Group 270" transform="translate(0 0)">
        <rect id="Rectangle_100" data-name="Rectangle 100" width="3" height="4" transform="translate(0.483 -0.094)" fill="#fff"/>
      </g>
    </g>
    <g id="Group_273" data-name="Group 273" transform="translate(-0.14 26.867)">
      <g id="Group_272" data-name="Group 272" transform="translate(0 0)">
        <rect id="Rectangle_101" data-name="Rectangle 101" width="4" height="4" transform="translate(-0.105 -0.094)" fill="#fff"/>
      </g>
    </g>
    <g id="Group_275" data-name="Group 275" transform="translate(-0.14 20.772)">
      <g id="Group_274" data-name="Group 274" transform="translate(0 0)">
        <rect id="Rectangle_102" data-name="Rectangle 102" width="4" height="3" transform="translate(-0.105 0)" fill="#fff"/>
      </g>
    </g>
    <g id="Group_277" data-name="Group 277" transform="translate(-0.14 13.808)">
      <g id="Group_276" data-name="Group 276" transform="translate(0 0)">
        <rect id="Rectangle_103" data-name="Rectangle 103" width="4" height="4" transform="translate(-0.105 -0.035)" fill="#fff"/>
      </g>
    </g>
    <g id="Group_279" data-name="Group 279" transform="translate(-0.14 7.714)">
      <g id="Group_278" data-name="Group 278" transform="translate(0 0)">
        <rect id="Rectangle_104" data-name="Rectangle 104" width="4" height="3" transform="translate(-0.105 0.059)" fill="#fff"/>
      </g>
    </g>
    <g id="Group_281" data-name="Group 281" transform="translate(5.954 7.714)">
      <g id="Group_280" data-name="Group 280" transform="translate(0 0)">
        <rect id="Rectangle_105" data-name="Rectangle 105" width="4" height="3" transform="translate(-0.198 0.059)" fill="#fff"/>
      </g>
    </g>
    <g id="Group_283" data-name="Group 283" transform="translate(12.918 7.714)">
      <g id="Group_282" data-name="Group 282" transform="translate(0 0)">
        <rect id="Rectangle_106" data-name="Rectangle 106" width="3" height="3" transform="translate(-0.163 0.059)" fill="#fff"/>
      </g>
    </g>
    <g id="Group_285" data-name="Group 285" transform="translate(19.014 7.714)">
      <g id="Group_284" data-name="Group 284" transform="translate(0 0)">
        <rect id="Rectangle_107" data-name="Rectangle 107" width="4" height="3" transform="translate(-0.259 0.059)" fill="#fff"/>
      </g>
    </g>
    <g id="Group_287" data-name="Group 287" transform="translate(25.107 7.714)">
      <g id="Group_286" data-name="Group 286" transform="translate(0 0)">
        <rect id="Rectangle_108" data-name="Rectangle 108" width="4" height="3" transform="translate(-0.353 0.059)" fill="#fff"/>
      </g>
    </g>
  </g>
</svg>
