<svg id="undraw_road_to_knowledge_m8s0" xmlns="http://www.w3.org/2000/svg" width="441.196" height="218.46" viewBox="0 0 441.196 218.46">
  <path id="Path_456" data-name="Path 456" d="M481.453,639.093a10.3,10.3,0,0,1,0-20.6h153a8.956,8.956,0,0,0-7.858-4.672H322.469a14.972,14.972,0,0,0,0,29.945H626.6a8.957,8.957,0,0,0,7.859-4.672Z" transform="translate(-228.474 -425.305)" fill="#ccc"/>
  <path id="Path_457" data-name="Path 457" d="M827.464,633.407H681.994a.841.841,0,1,1,0-1.682h145.47a.841.841,0,1,1,0,1.682Z" transform="translate(-421.279 -434.544)" fill="#ccc"/>
  <path id="Path_458" data-name="Path 458" d="M827.464,644.7H681.994a.841.841,0,1,1,0-1.682h145.47a.841.841,0,0,1,0,1.682Z" transform="translate(-421.279 -440.372)" fill="#ccc"/>
  <path id="Path_459" data-name="Path 459" d="M827.464,655.994H681.994a.841.841,0,1,1,0-1.682h145.47a.841.841,0,0,1,0,1.682Z" transform="translate(-421.279 -446.2)" fill="#ccc"/>
  <path id="Path_460" data-name="Path 460" d="M399.795,579.153a10.3,10.3,0,1,1,0-20.6h153a8.956,8.956,0,0,0-7.858-4.672H240.811a14.972,14.972,0,0,0,0,29.945H544.939a8.956,8.956,0,0,0,7.858-4.672Z" transform="translate(-186.337 -394.374)" fill="#6ba229"/>
  <path id="Path_461" data-name="Path 461" d="M745.806,573.467H600.336a.841.841,0,1,1,0-1.682h145.47a.841.841,0,1,1,0,1.682Z" transform="translate(-379.142 -403.614)" fill="#ccc"/>
  <path id="Path_462" data-name="Path 462" d="M745.806,584.76H600.336a.841.841,0,1,1,0-1.682h145.47a.841.841,0,1,1,0,1.682Z" transform="translate(-379.142 -409.441)" fill="#ccc"/>
  <path id="Path_463" data-name="Path 463" d="M745.806,596.053H600.336a.841.841,0,0,1,0-1.682h145.47a.841.841,0,1,1,0,1.682Z" transform="translate(-379.142 -415.269)" fill="#ccc"/>
  <path id="Path_464" data-name="Path 464" d="M318.137,517.213a10.3,10.3,0,0,1,0-20.6h153a8.956,8.956,0,0,0-7.858-4.672H159.153a14.972,14.972,0,0,0,0,29.945H463.281a8.956,8.956,0,0,0,7.858-4.672Z" transform="translate(-144.199 -362.412)" fill="#ccc"/>
  <path id="Path_465" data-name="Path 465" d="M664.148,511.527H518.678a.841.841,0,1,1,0-1.682h145.47a.841.841,0,1,1,0,1.682Z" transform="translate(-337.005 -371.652)" fill="#ccc"/>
  <path id="Path_466" data-name="Path 466" d="M664.148,522.82H518.678a.841.841,0,0,1,0-1.682h145.47a.841.841,0,0,1,0,1.682Z" transform="translate(-337.005 -377.479)" fill="#ccc"/>
  <path id="Path_467" data-name="Path 467" d="M664.148,534.113H518.678a.841.841,0,0,1,0-1.682h145.47a.841.841,0,0,1,0,1.682Z" transform="translate(-337.005 -383.306)" fill="#ccc"/>
  <path id="Path_468" data-name="Path 468" d="M823.24,393.806a3.146,3.146,0,0,1-3.134-2.94l-.467-7.128a3.146,3.146,0,0,1,2.934-3.345l55.845-3.657a6.718,6.718,0,0,1,.878,13.407L823.45,393.8C823.38,393.8,823.31,393.805,823.24,393.806Z" transform="translate(-492.737 -302.957)" fill="#6ba229"/>
  <path id="Path_469" data-name="Path 469" d="M846.063,394.031A3.15,3.15,0,0,1,842.921,391l-.4-10.647a3.146,3.146,0,0,1,3.026-3.261l45.923-1.716a3.146,3.146,0,0,1,3.261,3.026l.4,10.647a3.145,3.145,0,0,1-3.026,3.261l-45.923,1.716Z" transform="translate(-504.548 -302.263)" fill="#2f2e41"/>
  <path id="Path_470" data-name="Path 470" d="M950.06,546.515h-7.143a3.149,3.149,0,0,1-3.146-3.146V483.833a3.149,3.149,0,0,1,3.146-3.146h7.143a3.149,3.149,0,0,1,3.146,3.146v59.536A3.149,3.149,0,0,1,950.06,546.515Z" transform="translate(-554.732 -356.605)" fill="#2f2e41"/>
  <path id="Path_471" data-name="Path 471" d="M887.39,487.223l-6.109-3.7a3.149,3.149,0,0,1-1.06-4.321l30.861-50.913a3.149,3.149,0,0,1,4.321-1.06l6.109,3.7a3.15,3.15,0,0,1,1.06,4.321l-30.861,50.913a3.149,3.149,0,0,1-4.321,1.059Z" transform="translate(-523.768 -328.784)" fill="#2f2e41"/>
  <circle id="Ellipse_77" data-name="Ellipse 77" cx="24.683" cy="24.683" r="24.683" transform="translate(359.797 12.584)" fill="#6ba229"/>
  <path id="Path_472" data-name="Path 472" d="M907.488,301.569a5.855,5.855,0,0,1-2.138-1.255A3.936,3.936,0,0,1,904.2,297.2a2.648,2.648,0,0,1,1.177-2.038,3.425,3.425,0,0,1,3.265-.038l-.046-9.636.968,0,.054,11.328-.746-.469a2.932,2.932,0,0,0-2.973-.365,1.7,1.7,0,0,0-.736,1.316,2.975,2.975,0,0,0,.855,2.324c1.069,1.021,2.628,1.34,4.406,1.626l-.153.956a15.956,15.956,0,0,1-2.784-.626Z" transform="translate(-536.369 -255.875)" fill="#2f2e41"/>
  <rect id="Rectangle_135" data-name="Rectangle 135" width="0.968" height="5.213" transform="translate(362.123 30.085) rotate(-82.477)" fill="#2f2e41"/>
  <rect id="Rectangle_136" data-name="Rectangle 136" width="0.968" height="5.213" transform="translate(378.437 32.239) rotate(-82.477)" fill="#2f2e41"/>
  <path id="Path_473" data-name="Path 473" d="M932.435,440.209H890.813A4.118,4.118,0,0,1,886.7,436.1l8.714-66.82a4.109,4.109,0,0,1,4.112-4.083H914.3a22.278,22.278,0,0,1,22.253,22.253V436.1A4.118,4.118,0,0,1,932.435,440.209Z" transform="translate(-527.345 -297.008)" fill="#2f2e41"/>
  <path id="Path_474" data-name="Path 474" d="M997.348,423.922a3.151,3.151,0,0,1-.468,3.391l-4.67,5.405a3.145,3.145,0,0,1-4.437.324l-42.349-36.587a6.717,6.717,0,0,1,8.783-10.166l42.349,36.587A3.126,3.126,0,0,1,997.348,423.922Z" transform="translate(-556.449 -307.05)" fill="#6ba229"/>
  <path id="Path_475" data-name="Path 475" d="M983.907,406.877a3.151,3.151,0,0,1-.468,3.391l-7.977,9.233a3.149,3.149,0,0,1-4.437.324l-34.774-30.043a3.146,3.146,0,0,1-.324-4.437l7.977-9.233a3.146,3.146,0,0,1,4.437-.324l34.774,30.043A3.13,3.13,0,0,1,983.907,406.877Z" transform="translate(-552.353 -302.08)" fill="#2f2e41"/>
  <path id="Path_476" data-name="Path 476" d="M917.878,246.936c-3.3-2.731-7.71-.148-11.442-.515-3.57-.351-6.443-3.492-7.226-6.873-.913-3.944,1.067-7.951,4.049-10.477a15.729,15.729,0,0,1,11.833-3.206c4.791.483,9.2,2.628,13.178,5.248a58.972,58.972,0,0,1,10.543,8.595,22.691,22.691,0,0,1,6.1,10.761,14.921,14.921,0,0,1-1.849,11.147,11.714,11.714,0,0,1-4.513,3.864c-1.888.972-3.907,1.679-5.733,2.772-2.761,1.652-5.41,5.02-4.47,8.455a4.739,4.739,0,0,0,1.116,2.007c.638.681,1.747-.256,1.107-.939a4,4,0,0,1-.552-4.3,7.875,7.875,0,0,1,3.427-3.916c1.911-1.141,4.032-1.864,5.993-2.908a13.079,13.079,0,0,0,4.72-4.066,16.175,16.175,0,0,0,2.322-11.594,22.876,22.876,0,0,0-5.768-11.353,57.149,57.149,0,0,0-10.654-9.072c-4.105-2.825-8.627-5.193-13.595-5.986a18.075,18.075,0,0,0-12.659,2.285,13.349,13.349,0,0,0-6.265,10.259,10.762,10.762,0,0,0,5.2,9.554,9.245,9.245,0,0,0,5.546,1.174c2.06-.171,4.112-.842,6.19-.706a4.327,4.327,0,0,1,2.569.982c.721.6,1.544-.6.829-1.193Z" transform="translate(-532.937 -224.308)" fill="#2f2e41"/>
  <path id="Path_477" data-name="Path 477" d="M879.555,529.928q.013-.082.031-.164a3.125,3.125,0,0,1,1.37-1.98l6-3.872a3.15,3.15,0,0,1,4.349.938l18.517,28.709a3.146,3.146,0,0,1-.938,4.349l-6,3.872a3.15,3.15,0,0,1-4.349-.939l-18.518-28.709A3.123,3.123,0,0,1,879.555,529.928Z" transform="translate(-523.638 -378.652)" fill="#2f2e41"/>
</svg>
