<svg xmlns="http://www.w3.org/2000/svg" width="27.173" height="23.55" viewBox="0 0 27.173 23.55">
  <g id="desktop-monitor" transform="translate(0 -36.543)">
    <path id="Path_71" data-name="Path 71" d="M26.508,37.208a2.18,2.18,0,0,0-1.6-.665H2.264a2.181,2.181,0,0,0-1.6.665A2.18,2.18,0,0,0,0,38.808v15.4a2.181,2.181,0,0,0,.665,1.6,2.181,2.181,0,0,0,1.6.665h7.7a2.96,2.96,0,0,1-.227,1.1,10.013,10.013,0,0,1-.453.99,1.565,1.565,0,0,0-.226.623.919.919,0,0,0,.906.906H17.21a.919.919,0,0,0,.906-.906,1.619,1.619,0,0,0-.227-.615,10.383,10.383,0,0,1-.453-1,2.983,2.983,0,0,1-.226-1.1h7.7a2.271,2.271,0,0,0,2.264-2.264v-15.4A2.179,2.179,0,0,0,26.508,37.208ZM25.361,50.583a.459.459,0,0,1-.453.453H2.264a.459.459,0,0,1-.453-.453V38.808a.459.459,0,0,1,.453-.453H24.909a.459.459,0,0,1,.453.453V50.583Z" fill="#707070"/>
  </g>
</svg>
