<svg xmlns="http://www.w3.org/2000/svg" width="53.978" height="51.791" viewBox="0 0 53.978 51.791">
  <g id="dollars-money-bag-on-a-hand" transform="translate(-0.001 -0.648)">
    <g id="money_5" transform="translate(0.001 0.648)">
      <g id="Group_373" data-name="Group 373">
        <path id="Path_399" data-name="Path 399" d="M53.979,31.3a5.224,5.224,0,0,0-5.216-5.218c-.125,0-.246.022-.368.029a10.376,10.376,0,0,0,.8-4.074c0-3.483-4.453-11.474-7.36-14.116a24.015,24.015,0,0,1-5.042.528,23.961,23.961,0,0,1-5.186-.56c-2.871,2.32-7.9,10.557-7.9,14.15a9.7,9.7,0,0,0,.155,1.732c-.867-.059-1.749-.093-2.648-.093a31.256,31.256,0,0,0-6.685.715c-.062-.771-.106-1.242-.106-1.242H.607a105.644,105.644,0,0,0,0,22.591H14.421s.121-1.321.253-3.2c2.056-.346,4.162.2,6.592,1.709a20.112,20.112,0,0,0,11,3.207,18.459,18.459,0,0,0,10.729-3.3l0,0a1.268,1.268,0,0,0,.115-.091,19.856,19.856,0,0,0,2.385-1.97c.584-.6,1.375-1.361,2.561-2.522A45.542,45.542,0,0,0,52.528,34.9h-.015A5.146,5.146,0,0,0,53.979,31.3ZM33.453,17.725a2.71,2.71,0,0,1,.538-.827,3,3,0,0,1,.823-.6,3.325,3.325,0,0,1,1.032-.322v-.906h1.92v1.044a3.215,3.215,0,0,1,.768.326v-.408h1.921v2.876H38.522c-.155-.172-.309-.326-.454-.457a2.344,2.344,0,0,0-.466-.329,2.373,2.373,0,0,0-.538-.2,3.08,3.08,0,0,0-.692-.069,1.3,1.3,0,0,0-.884.273.8.8,0,0,0-.309.59q0,.891,1.923,1.179a5.536,5.536,0,0,1,1.9.58,3.72,3.72,0,0,1,1.075.879,2.377,2.377,0,0,1,.474.933,3.567,3.567,0,0,1,.1.744,2.338,2.338,0,0,1-.221,1.019,2.561,2.561,0,0,1-.6.83,3.057,3.057,0,0,1-.908.577,3.676,3.676,0,0,1-1.149.26v.864h-1.92V25.458c-.1-.046-.2-.089-.3-.132a2.984,2.984,0,0,1-.28-.128v.422h-1.92V22.743h1.92a4.709,4.709,0,0,0,.488.474,2.316,2.316,0,0,0,.494.326,2.113,2.113,0,0,0,.56.194,4.028,4.028,0,0,0,.709.057,1.622,1.622,0,0,0,.864-.211.629.629,0,0,0,.342-.555.783.783,0,0,0-.179-.5,1.592,1.592,0,0,0-.457-.363,2.8,2.8,0,0,0-.614-.238c-.226-.059-.447-.108-.668-.145a5.971,5.971,0,0,1-1.862-.55,3.682,3.682,0,0,1-1.076-.808,2.266,2.266,0,0,1-.494-.9,3.259,3.259,0,0,1-.116-.813A2.421,2.421,0,0,1,33.453,17.725ZM50.809,33.344c-.7.692-3.65,3.737-4.453,4.523-2.072,2.033-3.038,2.986-3.49,3.512l-.012-.008c-.317.285-.649.54-.989.789a17.421,17.421,0,0,1-19.281-.042h-.017A12.729,12.729,0,0,0,14.831,40.1c.108-1.859.194-3.9.194-5.644,0-2.434-.169-5.417-.322-7.709a29.678,29.678,0,0,1,6.506-.719c6.945,0,13.09,2.3,16.854,5.894a2.784,2.784,0,0,1-2.073,4.656c-.054,0-.11-.017-.174-.02l-.007.03c-1.439-.049-3.691-.653-7.493-2.109l-.864,2.267c4.02,1.528,6.668,2.22,8.546,2.267V39a5.227,5.227,0,0,0,4.985-3.713v0c.813-1.351,3.858-4.165,5.587-5.7v0a.658.658,0,0,1,.049-.049c.319-.283.6-.526.795-.7a2.3,2.3,0,0,1,1.348-.329,2.8,2.8,0,0,1,2.794,2.8A3.476,3.476,0,0,1,50.809,33.344Z" transform="translate(-0.001 4.326)" fill="#fff"/>
        <path id="Path_400" data-name="Path 400" d="M20.43,11.151a23.14,23.14,0,0,0,4.642.557,19.922,19.922,0,0,0,3.807-.326c1.334-.656,4.334-7.574,2.574-10.014C29.487-1.353,26.2,4.561,24.681,3.954S19.944.194,17.817,1.479C15.968,2.6,18.975,10.069,20.43,11.151Z" transform="translate(11.836 -0.648)" fill="#fff"/>
      </g>
    </g>
  </g>
</svg>
