<svg xmlns="http://www.w3.org/2000/svg" width="80.736" height="66.193" viewBox="0 0 80.736 66.193">
  <g id="fax-top-view" transform="translate(0 -22.166)">
    <g id="Group_363" data-name="Group 363" transform="translate(0 22.166)">
      <path id="Path_382" data-name="Path 382" d="M6.721,131.8H7.88a14.7,14.7,0,0,1-1.724-6.993V98.471A14.671,14.671,0,0,1,7.88,91.479H6.721A6.72,6.72,0,0,0,0,98.2v26.879A6.721,6.721,0,0,0,6.721,131.8Z" transform="translate(0 -68.742)" fill="#fff"/>
      <path id="Path_383" data-name="Path 383" d="M76,85.224h49.089A6.719,6.719,0,0,0,131.8,78.5V51.622a6.719,6.719,0,0,0-6.718-6.721H121V31.458a9.037,9.037,0,0,0-8.739-9.292H87.172a9.038,9.038,0,0,0-8.735,9.292V44.9H76a14.69,14.69,0,0,1,1.728,6.992V78.227A14.726,14.726,0,0,1,76,85.224ZM118.357,80.5a2.911,2.911,0,1,1,2.914-2.91A2.909,2.909,0,0,1,118.357,80.5Zm3.585-21.279V70.249H84.536V59.216ZM82.469,31.46a5.01,5.01,0,0,1,4.7-5.26H112.26a5.01,5.01,0,0,1,4.706,5.26V46.253a5.011,5.011,0,0,1-4.706,5.26H87.172a5.01,5.01,0,0,1-4.7-5.26Z" transform="translate(-51.066 -22.166)" fill="#fff"/>
      <path id="Path_384" data-name="Path 384" d="M34.1,128.511c4.29,0,7.765-4.536,7.765-10.129V92.047c0-5.593-3.475-10.128-7.765-10.128s-7.765,4.535-7.765,10.128v26.336C26.336,123.975,29.815,128.511,34.1,128.511Z" transform="translate(-17.697 -62.318)" fill="#fff"/>
      <path id="Path_385" data-name="Path 385" d="M106.258,48.763h25.28a1.568,1.568,0,1,0,0-3.135h-25.28a1.568,1.568,0,0,0,0,3.135Z" transform="translate(-70.348 -37.932)" fill="#fff"/>
      <path id="Path_386" data-name="Path 386" d="M106.258,70.889h25.28a1.568,1.568,0,1,0,0-3.135h-25.28a1.568,1.568,0,0,0,0,3.135Z" transform="translate(-70.348 -52.799)" fill="#fff"/>
      <path id="Path_387" data-name="Path 387" d="M106.258,93.016h25.28a1.568,1.568,0,1,0,0-3.135h-25.28a1.568,1.568,0,0,0,0,3.135Z" transform="translate(-70.348 -67.668)" fill="#fff"/>
    </g>
  </g>
</svg>
