<svg xmlns="http://www.w3.org/2000/svg" width="56.488" height="60" viewBox="0 0 56.488 60">
  <g id="graphic-design" transform="translate(-14.983 0)">
    <path id="Path_401" data-name="Path 401" d="M52.518,141.659a10.123,10.123,0,0,1-2.891,5.932c-1.983,1.984-4.754,2.918-8.235,2.777a6.746,6.746,0,0,0-3.754.657,4.1,4.1,0,0,1-5.6-.187,4.127,4.127,0,0,1-.64-4.971l.655-1.038a7.994,7.994,0,0,0,.454-3.345c-.139-3.482.795-6.252,2.777-8.235a10.067,10.067,0,0,1,5.946-2.9,9.589,9.589,0,0,1,2-4.155H19.677a4.7,4.7,0,0,0-4.693,4.692v23.273H63.945V131.053L58,138.345A9.589,9.589,0,0,1,52.518,141.659Z" transform="translate(-0.001 -111.408)" fill="#fff"/>
    <path id="Path_402" data-name="Path 402" d="M14.983,396.327a4.7,4.7,0,0,0,4.693,4.691H33.015v4.024H30.058a1.758,1.758,0,0,0,0,3.516h18.81a1.758,1.758,0,0,0,0-3.516H45.912v-4.024H59.251a4.7,4.7,0,0,0,4.693-4.691v-1.5H14.983v1.5Z" transform="translate(0 -348.558)" fill="#fff"/>
    <path id="Path_403" data-name="Path 403" d="M180.814,204.41h-.006a.586.586,0,0,0,.832.825c.036-.034,1.811-1.675,6.184-1.5,2.46.1,4.346-.49,5.607-1.751a6.625,6.625,0,1,0-9.369-9.369c-1.26,1.26-1.85,3.147-1.751,5.607.177,4.4-1.483,6.167-1.5,6.181h0Z" transform="translate(-146.246 -168.336)" fill="#fff"/>
    <path id="Path_404" data-name="Path 404" d="M277.342,131.491a6.059,6.059,0,0,0,2.948-1.964l2.246-2.753-8-8-2.741,2.239a6.05,6.05,0,0,0-1.97,2.946,10.139,10.139,0,0,1,7.518,7.533Z" transform="translate(-224.977 -104.854)" fill="#fff"/>
    <path id="Path_405" data-name="Path 405" d="M351.5,1.055a3.582,3.582,0,0,0-4.813-.241l-13.308,10.87,7.5,7.5L351.739,5.867a3.582,3.582,0,0,0-.243-4.812Z" transform="translate(-281.081 0)" fill="#fff"/>
  </g>
</svg>
