<svg xmlns="http://www.w3.org/2000/svg" width="20" height="18.141" viewBox="0 0 20 18.141">
  <path id="heart_1_" data-name="heart (1)" d="M14.169,22.543a5.767,5.767,0,0,0-2.649.635A5.876,5.876,0,0,0,10,24.3a5.876,5.876,0,0,0-1.521-1.121,5.768,5.768,0,0,0-2.649-.635A5.837,5.837,0,0,0,0,28.373c0,2.277,1.2,4.7,3.574,7.188a34.562,34.562,0,0,0,6.09,4.905l.336.217.336-.217a34.561,34.561,0,0,0,6.09-4.905C18.8,33.069,20,30.65,20,28.373A5.837,5.837,0,0,0,14.169,22.543Z" transform="translate(0 -22.543)" fill="#6ba229"/>
</svg>
