<svg xmlns="http://www.w3.org/2000/svg" width="52.838" height="60" viewBox="0 0 52.838 60">
  <g id="like_1_" data-name="like (1)" transform="translate(-30.556)">
    <g id="Group_381" data-name="Group 381" transform="translate(69.304 10.567)">
      <g id="Group_380" data-name="Group 380">
        <path id="Path_406" data-name="Path 406" d="M366.491,90.17h-3.523a1.761,1.761,0,0,0,0,3.523h3.523a1.761,1.761,0,1,0,0-3.523Z" transform="translate(-361.207 -90.17)" fill="#fff"/>
      </g>
    </g>
    <g id="Group_383" data-name="Group 383" transform="translate(51.691 0)">
      <g id="Group_382" data-name="Group 382">
        <path id="Path_407" data-name="Path 407" d="M216.006,4.5,214.244.973a1.762,1.762,0,1,0-3.151,1.576l1.761,3.523A1.761,1.761,0,1,0,216.006,4.5Z" transform="translate(-210.907 0)" fill="#fff"/>
      </g>
    </g>
    <g id="Group_385" data-name="Group 385" transform="translate(64.02 0)">
      <g id="Group_384" data-name="Group 384">
        <path id="Path_408" data-name="Path 408" d="M320.423.185a1.765,1.765,0,0,0-2.363.788L316.3,4.5a1.762,1.762,0,1,0,3.151,1.576l1.761-3.523A1.761,1.761,0,0,0,320.423.185Z" transform="translate(-316.112 0)" fill="#fff"/>
      </g>
    </g>
    <g id="Group_387" data-name="Group 387" transform="translate(44.646 10.567)">
      <g id="Group_386" data-name="Group 386">
        <path id="Path_409" data-name="Path 409" d="M156.077,90.17h-3.523a1.761,1.761,0,1,0,0,3.523h3.523a1.761,1.761,0,1,0,0-3.523Z" transform="translate(-150.793 -90.17)" fill="#fff"/>
      </g>
    </g>
    <g id="Group_389" data-name="Group 389" transform="translate(30.556 28.297)">
      <g id="Group_388" data-name="Group 388" transform="translate(0)">
        <path id="Path_410" data-name="Path 410" d="M39.363,241.468H32.317a1.761,1.761,0,0,0-1.761,1.761v28.18a1.761,1.761,0,0,0,1.761,1.761h7.045a1.761,1.761,0,0,0,1.761-1.761v-28.18A1.761,1.761,0,0,0,39.363,241.468Z" transform="translate(-30.556 -241.468)" fill="#fff"/>
      </g>
    </g>
    <g id="Group_391" data-name="Group 391" transform="translate(44.646 10.684)">
      <g id="Group_390" data-name="Group 390">
        <path id="Path_411" data-name="Path 411" d="M189.507,113.454a5.54,5.54,0,0,0-5.613-4.669H170.163c1.167-2.09,1.793-8,1.766-10.414a7.334,7.334,0,0,0-7.352-7.2h-1.453a1.76,1.76,0,0,0-1.761,1.761c0,4.073-1.586,11.424-4.577,14.415a19.51,19.51,0,0,1-5.991,3.87v26.428c3.455,1.152,7.842,2.841,14.528,2.841h11.521c3.8,0,6.753-3.516,5.282-7.231a5.285,5.285,0,0,0,3.523-7.045,5.287,5.287,0,0,0,2.546-8.621A5.273,5.273,0,0,0,189.507,113.454Z" transform="translate(-150.794 -91.172)" fill="#fff"/>
      </g>
    </g>
  </g>
</svg>
