<svg xmlns="http://www.w3.org/2000/svg" width="20" height="20" viewBox="0 0 20 20">
  <g id="money" transform="translate(-149.449 38.678)">
    <path id="Path_448" data-name="Path 448" d="M191,20a10,10,0,1,0-10-10A10.011,10.011,0,0,0,191,20ZM189.889,4.649V3.378a1.111,1.111,0,0,1,2.222,0V4.661a3.32,3.32,0,0,1,1.775,1.448,1.111,1.111,0,0,1-1.923,1.113A1.111,1.111,0,1,0,191,8.889a3.325,3.325,0,0,1,1.111,6.462v1.227a1.111,1.111,0,0,1-2.222,0V15.338a3.322,3.322,0,0,1-1.775-1.448,1.111,1.111,0,0,1,1.923-1.113A1.111,1.111,0,1,0,191,11.111a3.325,3.325,0,0,1-1.111-6.462Zm0,0" transform="translate(-31.551 -38.678)" fill="#6ba229"/>
  </g>
</svg>
