<svg xmlns="http://www.w3.org/2000/svg" width="32.847" height="32.841" viewBox="0 0 32.847 32.841">
  <path id="Path_36" data-name="Path 36" d="M4.367,2l5.7.206A3.073,3.073,0,0,1,12.8,4.147l1.686,4.171a3.218,3.218,0,0,1-.281,2.952l-2.16,3.324a38.67,38.67,0,0,0,8.441,8.659l2.747-1.69a3,3,0,0,1,2.324-.355l5.46,1.4a3.142,3.142,0,0,1,2.316,3.3l-.351,4.675a2.842,2.842,0,0,1-3.059,2.742C8.883,30.875-3.454,2,4.367,2Z" transform="translate(-1.249 -1.25)" fill="none" stroke="#000" stroke-linecap="round" stroke-linejoin="round" stroke-width="1.5"/>
</svg>
