<svg xmlns="http://www.w3.org/2000/svg" width="83.449" height="94.718" viewBox="0 0 83.449 94.718">
  <g id="save-money" transform="translate(-0.36)">
    <path id="Path_256" data-name="Path 256" d="M192.8,170.145a1.479,1.479,0,0,0-.533-.018,3.532,3.532,0,0,1-3.124-3.5,1.554,1.554,0,0,0-3.107,0,6.647,6.647,0,0,0,4.887,6.4v1.554a1.554,1.554,0,1,0,3.107,0v-1.46a6.634,6.634,0,0,0-1.359-13.128,3.528,3.528,0,1,1,3.528-3.528,1.554,1.554,0,0,0,3.107,0,6.647,6.647,0,0,0-5.275-6.495v-1.414a1.554,1.554,0,1,0-3.107,0v1.509a6.634,6.634,0,0,0,1.748,13.034,3.525,3.525,0,0,1,.129,7.048Zm0,0" transform="translate(-149.618 -118.452)" fill="#fff"/>
    <path id="Path_257" data-name="Path 257" d="M104.2,129.022a22.53,22.53,0,1,0,22.53-22.53A22.529,22.529,0,0,0,104.2,129.022Zm22.53-19.422A19.422,19.422,0,1,1,107.3,129.022,19.422,19.422,0,0,1,126.725,109.6Zm0,0" transform="translate(-83.67 -85.811)" fill="#fff"/>
    <path id="Path_258" data-name="Path 258" d="M73.243,332.546,61.073,338.3a9.913,9.913,0,0,0-8.451-5.215l-11.235-.309a11.867,11.867,0,0,1-5.106-1.319l-1.143-.592a20.165,20.165,0,0,0-18.678.02l.071-2.59a1.554,1.554,0,0,0-1.51-1.6L2.7,326.357a1.553,1.553,0,0,0-1.6,1.51L.36,354.9a1.554,1.554,0,0,0,1.51,1.6l12.32.339h.042a1.554,1.554,0,0,0,1.554-1.511l.036-1.293,3.2-1.714a5.49,5.49,0,0,1,4.1-.448l19.113,5.364c.033.01.067.017.1.025a20.459,20.459,0,0,0,4.2.433,20.73,20.73,0,0,0,8.66-1.89,1.443,1.443,0,0,0,.193-.106L83.1,337.773a1.554,1.554,0,0,0,.509-2.07,7.848,7.848,0,0,0-10.364-3.157ZM3.509,353.436l.658-23.93,9.213.253-.658,23.931Zm50.285-.407a17.616,17.616,0,0,1-10.772,1.2l-19.061-5.351a8.591,8.591,0,0,0-6.4.7l-1.636.876.438-15.911a17.078,17.078,0,0,1,17.35-.926l1.143.592a15.006,15.006,0,0,0,6.45,1.666l11.236.309a6.815,6.815,0,0,1,6.476,5.43l-16.736-.462a1.554,1.554,0,0,0-.086,3.107l18.469.508H60.7a1.554,1.554,0,0,0,1.552-1.511,9.86,9.86,0,0,0-.15-2.016l12.483-5.9.036-.017a4.747,4.747,0,0,1,5.368.752Zm0,0" transform="translate(0 -262.975)" fill="#fff"/>
    <path id="Path_259" data-name="Path 259" d="M215.31,16.313V1.554a1.554,1.554,0,0,0-3.107,0v14.76a1.554,1.554,0,0,0,3.107,0Zm0,0" transform="translate(-170.702)" fill="#fff"/>
    <path id="Path_260" data-name="Path 260" d="M275.31,48.545V41.554a1.554,1.554,0,1,0-3.107,0v6.991a1.554,1.554,0,1,0,3.107,0Zm0,0" transform="translate(-219.049 -32.232)" fill="#fff"/>
    <path id="Path_261" data-name="Path 261" d="M155.31,48.545V41.554a1.554,1.554,0,1,0-3.107,0v6.991a1.554,1.554,0,1,0,3.107,0Zm0,0" transform="translate(-122.354 -32.232)" fill="#fff"/>
  </g>
</svg>
