<svg xmlns="http://www.w3.org/2000/svg" width="21.147" height="23.07" viewBox="0 0 21.147 23.07">
  <g id="share" transform="translate(0 0)">
    <path id="Path_61" data-name="Path 61" d="M320.916,19.124A3.124,3.124,0,1,1,317.792,16a3.124,3.124,0,0,1,3.124,3.124Zm0,0" transform="translate(-300.49 -15.279)" fill="#fff"/>
    <path id="Path_62" data-name="Path 62" d="M302.513,7.69a3.845,3.845,0,1,1,3.845-3.845A3.849,3.849,0,0,1,302.513,7.69Zm0-6.248a2.4,2.4,0,1,0,2.4,2.4,2.406,2.406,0,0,0-2.4-2.4Zm0,0" transform="translate(-285.21)" fill="#fff"/>
    <path id="Path_63" data-name="Path 63" d="M320.916,360.456a3.124,3.124,0,1,1-3.124-3.124A3.124,3.124,0,0,1,320.916,360.456Zm0,0" transform="translate(-300.49 -341.231)" fill="#fff"/>
    <path id="Path_64" data-name="Path 64" d="M302.513,349.022a3.845,3.845,0,1,1,3.845-3.845A3.849,3.849,0,0,1,302.513,349.022Zm0-6.248a2.4,2.4,0,1,0,2.4,2.4A2.406,2.406,0,0,0,302.513,342.774Zm0,0" transform="translate(-285.21 -325.952)" fill="#fff"/>
    <path id="Path_65" data-name="Path 65" d="M22.248,189.792a3.124,3.124,0,1,1-3.124-3.124A3.124,3.124,0,0,1,22.248,189.792Zm0,0" transform="translate(-15.279 -178.257)" fill="#fff"/>
    <path id="Path_66" data-name="Path 66" d="M3.845,178.358a3.845,3.845,0,1,1,3.845-3.845,3.849,3.849,0,0,1-3.845,3.845Zm0-6.248a2.4,2.4,0,1,0,2.4,2.4,2.406,2.406,0,0,0-2.4-2.4Zm0,0" transform="translate(0 -162.978)" fill="#fff"/>
    <path id="Path_67" data-name="Path 67" d="M115.311,97.223a.961.961,0,0,1-.477-1.8l8.919-5.085a.961.961,0,1,1,.952,1.671L115.785,97.1a.955.955,0,0,1-.475.126Zm0,0" transform="translate(-109.196 -86.149)" fill="#fff"/>
    <path id="Path_68" data-name="Path 68" d="M124.251,273.227a.955.955,0,0,1-.475-.126l-8.919-5.085a.961.961,0,0,1,.952-1.671l8.919,5.085a.961.961,0,0,1-.477,1.8Zm0,0" transform="translate(-109.218 -254.223)" fill="#fff"/>
  </g>
</svg>
