<svg xmlns="http://www.w3.org/2000/svg" width="18.474" height="22.013" viewBox="0 0 18.474 22.013">
  <g id="shopping-bag" transform="translate(-53.023)">
    <g id="Group_408" data-name="Group 408" transform="translate(53.023 4.343)">
      <g id="Group_407" data-name="Group 407">
        <path id="Path_449" data-name="Path 449" d="M71.487,114.815l-1.04-12.387A1.6,1.6,0,0,0,68.82,101H66.764v2.877a.683.683,0,0,1-1.365,0V101H59.122v2.877a.684.684,0,0,1-1.365,0V101H55.7a1.6,1.6,0,0,0-1.626,1.421l-1.041,12.391a3.476,3.476,0,0,0,1,2.71,3.912,3.912,0,0,0,2.783,1.149H67.7a3.912,3.912,0,0,0,2.783-1.149A3.475,3.475,0,0,0,71.487,114.815Zm-6.151-6.308-3.529,3.334a.711.711,0,0,1-.965,0l-1.654-1.563a.619.619,0,0,1,0-.912.711.711,0,0,1,.965,0l1.172,1.107L64.37,107.6a.711.711,0,0,1,.965,0A.62.62,0,0,1,65.335,108.507Z" transform="translate(-53.023 -101.005)" fill="#6ba229"/>
      </g>
    </g>
    <g id="Group_410" data-name="Group 410" transform="translate(57.757)">
      <g id="Group_409" data-name="Group 409" transform="translate(0)">
        <path id="Path_450" data-name="Path 450" d="M161.543,0a4.39,4.39,0,0,0-4.5,4.255v.087H158.4V4.255a3.144,3.144,0,0,1,6.278,0v.087h1.365V4.255A4.39,4.39,0,0,0,161.543,0Z" transform="translate(-157.039 0)" fill="#6ba229"/>
      </g>
    </g>
  </g>
</svg>
