<svg xmlns="http://www.w3.org/2000/svg" width="654.686" height="478.703" viewBox="0 0 654.686 478.703">
  <g id="undraw_schedule_meeting_52nu_1_" data-name="undraw_schedule_meeting_52nu (1)" transform="translate(0 0.001)">
    <path id="Path_421" data-name="Path 421" d="M808.837,447.689a8.008,8.008,0,0,0,7.979-7.485L818,422.059a8.008,8.008,0,0,0-7.468-8.515l-142.162-9.31a17.1,17.1,0,1,0-2.235,34.128L808.3,447.672Q808.571,447.689,808.837,447.689Z" transform="translate(-552.345 -221.161)" fill="#6ba229"/>
    <path id="Path_422" data-name="Path 422" d="M798.008,450.338a8.019,8.019,0,0,0,8-7.71l1.013-27.1a8.008,8.008,0,0,0-7.7-8.3l-116.9-4.369a8.009,8.009,0,0,0-8.3,7.7l-1.013,27.1a8.008,8.008,0,0,0,7.7,8.3l116.9,4.369C797.806,450.337,797.908,450.338,798.008,450.338Z" transform="translate(-569.548 -221.47)" fill="#2f2e41"/>
    <path id="Path_423" data-name="Path 423" d="M778.554,675.954h18.184a8.017,8.017,0,0,0,8.008-8.008V516.388a8.017,8.017,0,0,0-8.008-8.008H778.554a8.017,8.017,0,0,0-8.008,8.008V667.945a8.017,8.017,0,0,0,8.008,8.009Z" transform="translate(-687.086 -197.252)" fill="#2f2e41"/>
    <path id="Path_424" data-name="Path 424" d="M741.419,675.954H759.6a8.017,8.017,0,0,0,8.008-8.008V516.388a8.017,8.017,0,0,0-8.008-8.008H741.419a8.017,8.017,0,0,0-8.008,8.008V667.945a8.017,8.017,0,0,0,8.008,8.009Z" transform="translate(-604.294 -197.252)" fill="#2f2e41"/>
    <ellipse id="Ellipse_73" data-name="Ellipse 73" cx="62.834" cy="62.834" rx="62.834" ry="62.834" transform="translate(56.253 27.292)" fill="#6ba229"/>
    <path id="Path_425" data-name="Path 425" d="M742.363,353.722a14.9,14.9,0,0,0,5.442-3.194,10.021,10.021,0,0,0,2.929-7.933,6.741,6.741,0,0,0-3-5.188c-2.247-1.441-5.252-1.446-8.312-.1l.116-24.529-2.464-.012-.136,28.837,1.9-1.194c2.2-1.383,5.346-2.356,7.567-.93a4.329,4.329,0,0,1,1.875,3.35,7.573,7.573,0,0,1-2.178,5.915c-2.721,2.6-6.69,3.412-11.217,4.138l.39,2.433A40.619,40.619,0,0,0,742.363,353.722Z" transform="translate(-589.265 -242.143)" fill="#2f2e41"/>
    <rect id="Rectangle_130" data-name="Rectangle 130" width="2.464" height="13.271" transform="translate(162.84 73.581) rotate(-97.523)" fill="#2f2e41"/>
    <rect id="Rectangle_131" data-name="Rectangle 131" width="2.464" height="13.271" transform="translate(121.312 79.064) rotate(-97.523)" fill="#2f2e41"/>
    <path id="Path_426" data-name="Path 426" d="M833.791,583.61h0a10.484,10.484,0,0,0,10.472-10.472s-16.7-90.585-26.236-143.678a44.721,44.721,0,0,0-44.015-36.815h0a56.649,56.649,0,0,0-56.649,56.649v17.889A116.427,116.427,0,0,0,833.79,583.61Z" transform="translate(-661.216 -223.812)" fill="#2f2e41"/>
    <path id="Path_427" data-name="Path 427" d="M765.093,571.01a8.021,8.021,0,0,0,7.352,4.678l18.184-.158a8.007,8.007,0,0,0,7.938-8.077l-1.235-142.461a17.1,17.1,0,0,0-34.2.3l1.235,142.461a7.964,7.964,0,0,0,.725,3.26Z" transform="translate(-671.793 -220.279)" fill="#6ba229"/>
    <path id="Path_428" data-name="Path 428" d="M760.933,533.659a8.02,8.02,0,0,0,7.352,4.678l31.059-.269a8.017,8.017,0,0,0,7.938-8.078L806.268,413.01a8.008,8.008,0,0,0-8.077-7.939l-31.058.269a8.008,8.008,0,0,0-7.938,8.077L760.208,530.4a7.972,7.972,0,0,0,.725,3.26Z" transform="translate(-675.665 -220.96)" fill="#2f2e41"/>
    <path id="Path_429" data-name="Path 429" d="M854.939,308.426c9.792,1.662,20.724,3.562,30.055-.978,7.344-3.574,12.393-10.712,10.6-19.1-3.56-16.691-22.668-24.07-38.025-22.581a40.792,40.792,0,0,0-24.135,10.882,2.235,2.235,0,0,1-3.771-1.562c.065-6.159-4.542-11.3-10-13.619-6.836-2.9-14.779-1.867-21.8-.312a96.819,96.819,0,0,0-74.794,80.972,95.739,95.739,0,0,0,3.075,41c3.727,12.245,10.611,24.553,21.944,31.215,10.213,6,25.063,7.549,34.487-.873,7.549-6.746,10.951-19.359,4.758-28.087a17.29,17.29,0,0,0-16.268-7.033,15.481,15.481,0,0,0-12.488,11.107,15.182,15.182,0,0,0,5.271,14.97,14.741,14.741,0,0,0,21.009-4.011c1.5-2.408,5.325-.192,3.815,2.23a19.574,19.574,0,0,1-16.092,9.026,18.093,18.093,0,0,1-15.927-8.919,18.884,18.884,0,0,1-.559-18.886,20.23,20.23,0,0,1,16.863-10.1,21.988,21.988,0,0,1,18.19,9.385,23.363,23.363,0,0,1,3.4,17.132,28.347,28.347,0,0,1-8.331,15.829,29.277,29.277,0,0,1-18.568,7.552c-14.981.854-28.355-7.776-36.618-19.773-8.574-12.449-12.408-28.07-13.181-43a101.353,101.353,0,0,1,34.088-81.167,102.993,102.993,0,0,1,37.388-20.89c13.649-4.181,32.706-7.229,41.923,6.717a16.983,16.983,0,0,1,2.835,9.535l-3.771-1.562c13.336-12.744,34.3-15.964,50.952-8.13,8.364,3.934,15.615,11.251,18.215,20.271,2.7,9.36-1.2,18.546-9.2,23.855-10.887,7.224-24.389,5.224-36.513,3.166-2.8-.475-1.611-4.733,1.174-4.261Z" transform="translate(-717.715 -255.325)" fill="#2f2e41"/>
    <path id="Path_430" data-name="Path 430" d="M355.273,567.371H713.054a21.54,21.54,0,0,0,21.516-21.516V331.924a21.541,21.541,0,0,0-21.516-21.516H355.273a21.541,21.541,0,0,0-21.516,21.516V545.855A21.54,21.54,0,0,0,355.273,567.371ZM713.054,314.1a17.848,17.848,0,0,1,17.828,17.828V545.855a17.848,17.848,0,0,1-17.828,17.828H355.273a17.848,17.848,0,0,1-17.828-17.828V331.924A17.848,17.848,0,0,1,355.273,314.1Z" transform="translate(-79.884 -242.409)" fill="#3f3d56"/>
    <path id="Path_431" data-name="Path 431" d="M393.126,357.145a15.369,15.369,0,1,0-15.369-15.369,15.369,15.369,0,0,0,15.369,15.369Zm0-27.049a11.68,11.68,0,1,1-11.68,11.68,11.68,11.68,0,0,1,11.68-11.68Z" transform="translate(192.094 -239.012)" fill="#3f3d56"/>
    <path id="Path_432" data-name="Path 432" d="M604.126,357.145a15.369,15.369,0,1,0-15.369-15.369,15.369,15.369,0,0,0,15.369,15.369Zm0-27.049a11.68,11.68,0,1,1-11.68,11.68,11.68,11.68,0,0,1,11.68-11.68Z" transform="translate(-278.327 -239.012)" fill="#3f3d56"/>
    <path id="Path_433" data-name="Path 433" d="M367.708,438.653H434.1A10.463,10.463,0,0,0,444.551,428.2V388.859A10.463,10.463,0,0,0,434.1,378.408H367.708a10.463,10.463,0,0,0-10.451,10.451V428.2A10.463,10.463,0,0,0,367.708,438.653Z" transform="translate(181.242 -227.079)" fill="#e6e6e6"/>
    <path id="Path_434" data-name="Path 434" d="M471.708,438.653H538.1A10.463,10.463,0,0,0,548.551,428.2V388.859A10.463,10.463,0,0,0,538.1,378.408H471.708a10.463,10.463,0,0,0-10.451,10.451V428.2A10.463,10.463,0,0,0,471.708,438.653Z" transform="translate(-50.624 -227.079)" fill="#e6e6e6"/>
    <path id="Path_435" data-name="Path 435" d="M641.87,379.408a9.231,9.231,0,0,1,9.221,9.221v39.344a9.231,9.231,0,0,1-9.221,9.221H575.478a9.231,9.231,0,0,1-9.221-9.221V388.629a9.231,9.231,0,0,1,9.221-9.221Z" transform="translate(-282.261 -226.85)" fill="#e6e6e6"/>
    <path id="Path_436" data-name="Path 436" d="M368.208,502.653H434.6A10.463,10.463,0,0,0,445.051,492.2V452.859A10.463,10.463,0,0,0,434.6,442.408H368.208a10.463,10.463,0,0,0-10.451,10.451V492.2A10.463,10.463,0,0,0,368.208,502.653Z" transform="translate(180.128 -212.392)" fill="#e6e6e6"/>
    <path id="Path_437" data-name="Path 437" d="M472.208,502.653H538.6A10.463,10.463,0,0,0,549.051,492.2V452.859A10.463,10.463,0,0,0,538.6,442.408H472.208a10.463,10.463,0,0,0-10.451,10.451V492.2A10.463,10.463,0,0,0,472.208,502.653Z" transform="translate(-51.739 -212.392)" fill="#e6e6e6"/>
    <path id="Path_438" data-name="Path 438" d="M576.208,502.653H642.6A10.463,10.463,0,0,0,653.051,492.2V452.859A10.463,10.463,0,0,0,642.6,442.408H576.208a10.463,10.463,0,0,0-10.451,10.451V492.2A10.463,10.463,0,0,0,576.208,502.653Z" transform="translate(-283.606 -212.392)" fill="#e6e6e6"/>
    <path id="Path_439" data-name="Path 439" d="M391.06,355.489a4.308,4.308,0,0,0,4.3-4.3V289.711a4.3,4.3,0,1,0-8.606,0v61.474a4.308,4.308,0,0,0,4.3,4.3Z" transform="translate(194.16 -248.421)" fill="#3f3d56"/>
    <path id="Path_440" data-name="Path 440" d="M602.06,355.489a4.308,4.308,0,0,0,4.3-4.3V289.711a4.3,4.3,0,0,0-8.607,0v61.474a4.308,4.308,0,0,0,4.3,4.3Z" transform="translate(-276.262 -248.421)" fill="#3f3d56"/>
    <path id="Path_395" data-name="Path 395" d="M395.814,427.3a8.345,8.345,0,0,1-5.021-1.669l-.09-.067L371.793,411.1a8.4,8.4,0,0,1,10.226-13.339l12.249,9.393,28.944-37.762a8.4,8.4,0,0,1,11.777-1.556l0,0-.18.249.184-.249a8.41,8.41,0,0,1,1.554,11.78l-34.045,44.4a8.4,8.4,0,0,1-6.684,3.277Z" transform="translate(173.686 -229.902)" fill="#6ba229"/>
    <path id="Path_395-2" data-name="Path 395" d="M502.814,490.3a8.345,8.345,0,0,1-5.021-1.669l-.09-.067L478.793,474.1a8.4,8.4,0,1,1,10.226-13.339l12.249,9.393,28.944-37.762a8.4,8.4,0,0,1,11.777-1.556l0,0-.18.249.184-.249a8.41,8.41,0,0,1,1.554,11.78l-34.045,44.4a8.4,8.4,0,0,1-6.684,3.277Z" transform="translate(-64.87 -215.445)" fill="#6ba229"/>
    <path id="Path_395-3" data-name="Path 395" d="M603.814,427.3a8.345,8.345,0,0,1-5.021-1.669l-.09-.067L579.793,411.1a8.4,8.4,0,0,1,10.226-13.339l12.249,9.393,28.944-37.762a8.4,8.4,0,0,1,11.777-1.556l0,0-.18.249.185-.249a8.41,8.41,0,0,1,1.554,11.78l-34.045,44.4a8.4,8.4,0,0,1-6.684,3.277Z" transform="translate(-290.048 -229.902)" fill="#6ba229"/>
  </g>
</svg>
