<svg id="Group" xmlns="http://www.w3.org/2000/svg" width="31.672" height="30.213" viewBox="0 0 31.672 30.213">
  <path id="Path_69" data-name="Path 69" d="M31.627,23.269a.928.928,0,0,0-.749-.632L21.059,21.21l-4.391-8.9a.928.928,0,0,0-1.664,0l-4.391,8.9L.795,22.637A.928.928,0,0,0,.28,24.22l7.1,6.925L5.708,40.924a.928.928,0,0,0,1.346.978l8.782-4.617L24.618,41.9a.928.928,0,0,0,1.346-.978l-1.677-9.779,7.105-6.926A.928.928,0,0,0,31.627,23.269Z" transform="translate(0 -11.796)" fill="#fecd1a"/>
</svg>
