<svg xmlns="http://www.w3.org/2000/svg" width="66.262" height="57.98" viewBox="0 0 66.262 57.98">
  <path id="Path_26" data-name="Path 26" d="M66.2,50.135,62.059,33.57A2.069,2.069,0,0,0,60.05,32H6.212A2.069,2.069,0,0,0,4.2,33.57L.062,50.135a2.026,2.026,0,0,0-.062.5,10.5,10.5,0,0,0,4.141,8.411V87.909A2.071,2.071,0,0,0,6.212,89.98H26.919a2.071,2.071,0,0,0,2.071-2.071V73.414h8.283V87.909a2.071,2.071,0,0,0,2.071,2.071H60.05a2.071,2.071,0,0,0,2.071-2.071V59.047a10.5,10.5,0,0,0,4.141-8.411A2.026,2.026,0,0,0,66.2,50.135Zm-8.221,35.7H41.414V71.343a2.071,2.071,0,0,0-2.071-2.071H26.919a2.071,2.071,0,0,0-2.071,2.071V85.838H8.283V60.824a9.186,9.186,0,0,0,1.553.166,9.658,9.658,0,0,0,7.765-4,9.531,9.531,0,0,0,15.53,0,9.531,9.531,0,0,0,15.53,0,9.658,9.658,0,0,0,7.765,4,9.186,9.186,0,0,0,1.553-.166Zm-1.553-28.99a5.978,5.978,0,0,1-5.694-6.212,2.071,2.071,0,0,0-4.141,0A5.978,5.978,0,0,1,40.9,56.848,5.978,5.978,0,0,1,35.2,50.636a2.071,2.071,0,1,0-4.141,0,5.978,5.978,0,0,1-5.694,6.212,5.978,5.978,0,0,1-5.694-6.212,2.071,2.071,0,0,0-4.141,0,5.978,5.978,0,0,1-5.694,6.212,5.956,5.956,0,0,1-5.69-5.972L7.831,36.141h50.6l3.686,14.735A5.962,5.962,0,0,1,56.427,56.848Z" transform="translate(0 -32)" fill="#fff"/>
</svg>
