<svg xmlns="http://www.w3.org/2000/svg" width="75" height="64.051" viewBox="0 0 75 64.051">
  <path id="Path_40" data-name="Path 40" d="M24.951,66.05c27.536,0,42.6-23.891,42.6-44.575,0-.672,0-1.344-.029-2.016A32.206,32.206,0,0,0,75,11.363a29.4,29.4,0,0,1-8.614,2.475,15.556,15.556,0,0,0,6.57-8.677,28.68,28.68,0,0,1-9.519,3.788,14.507,14.507,0,0,0-21.2-.672,16.107,16.107,0,0,0-4.322,14.97A41.986,41.986,0,0,1,7.081,6.871a16.084,16.084,0,0,0,4.643,20.9,14.184,14.184,0,0,1-6.8-1.955V26A15.536,15.536,0,0,0,16.95,41.364a14.131,14.131,0,0,1-6.774.275A15.081,15.081,0,0,0,24.163,52.516a29.236,29.236,0,0,1-18.6,6.721A34.316,34.316,0,0,1,2,59.023,41.013,41.013,0,0,0,24.951,66.05Z" transform="translate(-1 -2.999)" fill="none" stroke="#000" stroke-linecap="round" stroke-linejoin="round" stroke-width="2"/>
</svg>
