<svg xmlns="http://www.w3.org/2000/svg" width="172.587" height="296.531" viewBox="0 0 172.587 296.531">
  <g id="undraw_informed_decision_p2lh" transform="translate(-68.477 -232.639)">
    <path id="Path_595" data-name="Path 595" d="M38.471,0A38.471,38.471,0,1,1,0,38.471,38.471,38.471,0,0,1,38.471,0Z" transform="translate(68.477 248.211)" fill="#6ba229"/>
    <path id="Path_582" data-name="Path 582" d="M258.652,636.345h-10.61a4.677,4.677,0,0,0-4.672,4.672V729.44a4.677,4.677,0,0,0,4.672,4.672h10.61a4.677,4.677,0,0,0,4.672-4.672V641.017A4.677,4.677,0,0,0,258.652,636.345Z" transform="translate(-159.204 -204.942)" fill="#2f2e41"/>
    <path id="Path_583" data-name="Path 583" d="M289.842,636.345h-10.61a4.677,4.677,0,0,0-4.672,4.672V729.44a4.677,4.677,0,0,0,4.672,4.672h10.61a4.672,4.672,0,0,0,4.672-4.673V641.017a4.672,4.672,0,0,0-4.672-4.672Z" transform="translate(-167.974 -204.941)" fill="#2f2e41"/>
    <path id="Path_584" data-name="Path 584" d="M286.1,512.172a29.136,29.136,0,0,0-52.179,17.805v78.309a3.851,3.851,0,0,0,.058.712,5.029,5.029,0,0,0,4.974,4.32h48.212a5.042,5.042,0,0,0,5.032-5.032V529.977A28.933,28.933,0,0,0,286.1,512.172Z" transform="translate(-156.547 -166.847)" fill="#2f2e41"/>
    <path id="Path_585" data-name="Path 585" d="M320.242,449.1l-.04-1.438c2.675-.074,5.032-.242,6.8-1.537a4.419,4.419,0,0,0,1.712-3.255,2.526,2.526,0,0,0-.829-2.081c-1.176-.993-3.069-.672-4.448-.039l-1.189.545,2.281-16.67,1.424.2L324.017,439a5.075,5.075,0,0,1,4.8.691,3.933,3.933,0,0,1,1.337,3.229,5.846,5.846,0,0,1-2.3,4.366C325.578,448.948,322.62,449.032,320.242,449.1Z" transform="translate(-180.807 -145.41)" fill="#2f2e41"/>
    <rect id="Rectangle_151" data-name="Rectangle 151" width="7.743" height="1.438" transform="translate(127.755 280.632)" fill="#2f2e41"/>
    <path id="Path_586" data-name="Path 586" d="M250.618,517.374a4.637,4.637,0,0,0-3.249-1.5l-8.36-.345-2.236-.093a4.68,4.68,0,0,0-4.866,4.471l-1.323,31.858-2.336,56.492a4.68,4.68,0,0,0,4.133,4.838c.115.014.223.022.338.029l6.4.266,4.205.172a4.666,4.666,0,0,0,4.859-4.478l.28-6.735,2.063-49.822,1.323-31.793A4.671,4.671,0,0,0,250.618,517.374Z" transform="translate(-154.951 -170.943)" fill="#6ba229"/>
    <path id="Path_587" data-name="Path 587" d="M244.585,508.325a13,13,0,0,0-2.717-.28,13.314,13.314,0,0,0-13.3,13.3v24.44a4.692,4.692,0,0,0,2.106,3.9,4.606,4.606,0,0,0,1.74.69,4.472,4.472,0,0,0,.827.079h17.252a.653.653,0,0,0,.122-.007,4.669,4.669,0,0,0,4.55-4.665v-24.44a13.319,13.319,0,0,0-10.581-13.018Z" transform="translate(-155.042 -168.866)" fill="#2f2e41"/>
    <path id="Path_588" data-name="Path 588" d="M352,579.086a5.38,5.38,0,0,1-2.66-6.4l4.09-13.018-1.193-.992L320.847,532.7l-20.975-17.352-2.552-2.113a4.672,4.672,0,0,0-6.577.618l-6.764,8.18a4.664,4.664,0,0,0,.618,6.577l21.371,17.683,2.43,2.005,44.33,36.674a4.668,4.668,0,0,0,5.858.086,4.231,4.231,0,0,0,.632-.611.993.993,0,0,0,.086-.093l.855-1.035Z" transform="translate(-170.319 -170.024)" fill="#6ba229"/>
    <path id="Path_589" data-name="Path 589" d="M317.695,526.564l-18.912-15.476a13.3,13.3,0,1,0-16.849,20.58l18.912,15.476a4.67,4.67,0,0,0,5.909.007,3.875,3.875,0,0,0,.668-.661l10.926-13.349a4.62,4.62,0,0,0,.855-1.589,4.7,4.7,0,0,0-1.509-4.989Z" transform="translate(-168.676 -168.876)" fill="#2f2e41"/>
    <path id="Path_590" data-name="Path 590" d="M259.625,420.388c-2-3.347-3.571-7.034-2.827-11a7.81,7.81,0,0,1,6.877-6.66,24.178,24.178,0,0,1,6.558.755,24.618,24.618,0,0,0,5.354.347,26.592,26.592,0,0,0,10.388-2.634,25.5,25.5,0,0,0,13.7-16.052,26.775,26.775,0,0,0-4.629-23.479l1.8-.476L294.5,368.9a1.089,1.089,0,0,1-1.584.644,37.137,37.137,0,0,0-28.9-4.62,35.185,35.185,0,0,0-7.929,3.05c-1.225.651-2.316-1.21-1.088-1.862a39.318,39.318,0,0,1,30.848-2.363A37.533,37.533,0,0,1,294,367.68l-1.584.644,2.346-7.709a1.087,1.087,0,0,1,1.8-.476,28.9,28.9,0,0,1,5.924,21.912,27.272,27.272,0,0,1-11.809,18.919,29.082,29.082,0,0,1-21.963,4.415c-2.11-.406-4.5-.986-6.574-.1a5.679,5.679,0,0,0-3.043,3.743c-1.173,3.976.823,7.752,2.863,11.058Z" transform="translate(-162.323 -127.192)" fill="#2f2e41"/>
    <path id="Path_591" data-name="Path 591" d="M433.3,546.466l-35.56-20.58a6.831,6.831,0,0,0-9.934,3.86l-10.236,32.527-4.27,13.579a6.817,6.817,0,0,0,3.371,8.108l7.878,4.09,25.705,13.334a6.813,6.813,0,0,0,3.148.769,6.941,6.941,0,0,0,2.372-.424l.051-.022a6.865,6.865,0,0,0,3.954-3.939l16.475-42.95A6.8,6.8,0,0,0,433.3,546.466Zm1.61,7.842-16.475,42.95a5.412,5.412,0,0,1-3.127,3.105l-.036.014a5.414,5.414,0,0,1-4.356-.266l-25.425-13.19-8.158-4.234a5.38,5.38,0,0,1-2.66-6.4l4.09-13.018,10.409-33.087a5.4,5.4,0,0,1,7.842-3.048l35.56,20.58a5.369,5.369,0,0,1,2.336,6.6Z" transform="translate(-195.647 -173.625)" fill="#3f3d56"/>
    <path id="Path_592" data-name="Path 592" d="M430.17,567.27a2.149,2.149,0,0,1-1.031-.264l-23.721-12.939a2.157,2.157,0,1,1,2.065-3.786L431.2,563.22a2.157,2.157,0,0,1-1.035,4.05Z" transform="translate(-204.452 -180.668)" fill="#6ba229"/>
    <path id="Path_593" data-name="Path 593" d="M424.17,580.27a2.148,2.148,0,0,1-1.031-.264l-23.721-12.939a2.157,2.157,0,1,1,2.065-3.786L425.2,576.22a2.157,2.157,0,0,1-1.035,4.05Z" transform="translate(-202.765 -184.324)" fill="#6ba229"/>
    <path id="Path_594" data-name="Path 594" d="M419.17,594.27a2.15,2.15,0,0,1-1.031-.264l-23.721-12.939a2.157,2.157,0,1,1,2.065-3.786L420.2,590.22a2.157,2.157,0,0,1-1.035,4.05Z" transform="translate(-201.359 -188.26)" fill="#6ba229"/>
  </g>
</svg>
