<svg xmlns="http://www.w3.org/2000/svg" width="674" height="633.543" viewBox="0 0 674 633.543">
  <g id="undraw_News_re_6uub" transform="translate(0 -42.271)">
    <ellipse id="Ellipse_64" data-name="Ellipse 64" cx="82.056" cy="82.056" rx="82.056" ry="82.056" transform="translate(113.093 75.486)" fill="#6ba229"/>
    <path id="Path_350" data-name="Path 350" d="M809.263,739.616V551.009a9.977,9.977,0,0,0-9.966-9.966H776.668a9.977,9.977,0,0,0-9.966,9.966V739.616a9.977,9.977,0,0,0,9.966,9.966H799.3a9.977,9.977,0,0,0,9.966-9.966Z" transform="translate(-620.143 -74.819)" fill="#2f2e41"/>
    <path id="Path_351" data-name="Path 351" d="M778.07,739.616V551.009a9.977,9.977,0,0,0-9.966-9.966h-22.63a9.977,9.977,0,0,0-9.966,9.966V739.616a9.977,9.977,0,0,0,9.966,9.966H768.1a9.977,9.977,0,0,0,9.966-9.966Z" transform="translate(-541.126 -74.819)" fill="#2f2e41"/>
    <path id="Path_352" data-name="Path 352" d="M846.1,634.439V467.406a61.376,61.376,0,0,0-61.376-61.376h0a61.376,61.376,0,0,0-61.376,61.376V634.439a9.966,9.966,0,0,0,9.966,9.966H836.132a9.966,9.966,0,0,0,9.966-9.966Z" transform="translate(-590.505 -146.809)" fill="#2f2e41"/>
    <path id="Path_353" data-name="Path 353" d="M703.856,381.524l-.085-3.066c5.7-.159,10.734-.517,14.513-3.278a9.425,9.425,0,0,0,3.651-6.943,5.387,5.387,0,0,0-1.768-4.438c-2.509-2.119-6.545-1.433-9.487-.084l-2.537,1.163,4.865-35.556,3.038.416-4.138,30.245c4-1.175,7.7-.669,10.239,1.473A8.389,8.389,0,0,1,725,368.345a12.469,12.469,0,0,1-4.906,9.311C715.235,381.205,708.926,381.381,703.856,381.524Z" transform="translate(-439.412 -187.709)" fill="#2f2e41"/>
    <rect id="Rectangle_125" data-name="Rectangle 125" width="16.515" height="3.066" transform="translate(239.528 144.638)" fill="#2f2e41"/>
    <path id="Path_354" data-name="Path 354" d="M816.072,626.807a9.9,9.9,0,0,0,3.208-6.92l7.813-188.444a9.965,9.965,0,0,0-9.544-10.37l-22.61-.938a9.976,9.976,0,0,0-10.369,9.545l-7.813,188.445a9.978,9.978,0,0,0,9.545,10.37l22.61.937a10.071,10.071,0,0,0,2.154-.14A9.891,9.891,0,0,0,816.072,626.807Z" transform="translate(-653.383 -139.292)" fill="#6ba229"/>
    <path id="Path_355" data-name="Path 355" d="M782.225,503.2h36.8a9.977,9.977,0,0,0,9.966-9.966V441.108a28.364,28.364,0,1,0-56.729,0v52.129A9.977,9.977,0,0,0,782.225,503.2Z" transform="translate(-648.388 -143.229)" fill="#2f2e41"/>
    <path id="Path_356" data-name="Path 356" d="M800.7,570.843l14.426-17.436a9.978,9.978,0,0,0-1.325-14.031L668.484,419.148a9.972,9.972,0,0,0-14.031,1.325l-14.425,17.436a9.965,9.965,0,0,0,1.326,14.031L786.67,572.168a9.946,9.946,0,0,0,14.032-1.325Z" transform="translate(-430.566 -141.033)" fill="#6ba229"/>
    <path id="Path_357" data-name="Path 357" d="M766.622,494.712l23.31-28.472a9.977,9.977,0,0,0-1.4-14.024L748.2,419.194a28.364,28.364,0,1,0-35.936,43.895L752.6,496.11A9.977,9.977,0,0,0,766.622,494.712Z" transform="translate(-503.652 -143.212)" fill="#2f2e41"/>
    <path id="Path_358" data-name="Path 358" d="M727.175,393.692c-4.273-7.138-7.617-15-6.03-23.461,1.417-7.552,6.852-13.434,14.668-14.206,4.706-.465,9.39.792,13.987,1.61a52.512,52.512,0,0,0,11.419.74,56.72,56.72,0,0,0,22.157-5.618,54.382,54.382,0,0,0,29.217-34.239c4.664-16.978,1.2-36.258-9.874-50.079l3.844-1.015-5,16.443a2.323,2.323,0,0,1-3.378,1.374,79.212,79.212,0,0,0-61.636-9.854,75.051,75.051,0,0,0-16.913,6.505c-2.612,1.389-4.939-2.58-2.321-3.972a83.862,83.862,0,0,1,65.8-5.04,80.058,80.058,0,0,1,17.394,8.39l-3.378,1.374,5-16.443a2.318,2.318,0,0,1,3.844-1.015,61.646,61.646,0,0,1,12.636,46.736,58.172,58.172,0,0,1-25.189,40.352,62.03,62.03,0,0,1-46.845,9.417c-4.5-.865-9.606-2.1-14.023-.219a12.112,12.112,0,0,0-6.492,7.984c-2.5,8.481,1.756,16.534,6.106,23.586Z" transform="translate(-552.598 -222.258)" fill="#2f2e41"/>
    <path id="Path_359" data-name="Path 359" d="M783.529,480.34h.057a3.781,3.781,0,0,0,3.678-2.955l-.3-63.886a3.887,3.887,0,0,0-2.147-4.374C773.7,403.9,762.2,403.2,749.686,406.982a3.836,3.836,0,0,0-2.617,4.665l32.758,65.841a3.779,3.779,0,0,0,3.7,2.853Z" transform="translate(-567.845 -147.576)" fill="#ccc"/>
    <path id="Path_360" data-name="Path 360" d="M641.584,678.81h380.235a1.533,1.533,0,0,0,0-3.066H641.584a1.533,1.533,0,1,0,0,3.066Z" transform="translate(-640.051 -2.996)" fill="#3f3d56"/>
    <path id="Path_361" data-name="Path 361" d="M465.014,617.251H750.191a14.582,14.582,0,0,0,14.565-14.565V391.1a14.582,14.582,0,0,0-14.565-14.565H465.014A14.582,14.582,0,0,0,450.449,391.1V602.686A14.582,14.582,0,0,0,465.014,617.251Z" transform="translate(-90.756 -162.534)" fill="#fff"/>
    <path id="Path_362" data-name="Path 362" d="M576.668,480.091,521.517,481H489.393a5.373,5.373,0,0,1-5.366-5.366v-1.875l27.661-29.743a5.367,5.367,0,0,1,7.724-.14l27.205,27.205a3.837,3.837,0,0,0,5.419,0l4.026-4.02a5.371,5.371,0,0,1,7.588,0Z" transform="translate(45.85 -127.47)" fill="#6ba229"/>
    <path id="Path_363" data-name="Path 363" d="M465.014,617.251H750.191a14.582,14.582,0,0,0,14.565-14.565V391.1a14.582,14.582,0,0,0-14.565-14.565H465.014A14.582,14.582,0,0,0,450.449,391.1V602.686A14.582,14.582,0,0,0,465.014,617.251ZM750.191,381.138a9.977,9.977,0,0,1,9.966,9.966V602.686a9.977,9.977,0,0,1-9.966,9.966H465.014a9.977,9.977,0,0,1-9.966-9.966V391.1a9.977,9.977,0,0,1,9.966-9.966Z" transform="translate(-90.756 -162.534)" fill="#3f3d56"/>
    <path id="Path_364" data-name="Path 364" d="M482.549,404.237H703.33a4.6,4.6,0,1,0,0-9.2H482.549a4.6,4.6,0,0,0,0,9.2Z" transform="translate(-76.093 -152.67)" fill="#3f3d56"/>
    <path id="Path_365" data-name="Path 365" d="M483.049,420.737H703.83a4.6,4.6,0,0,0,0-9.2H483.049a4.6,4.6,0,1,0,0,9.2Z" transform="translate(-77.359 -143.872)" fill="#3f3d56"/>
    <path id="Path_366" data-name="Path 366" d="M558.549,437.237H664.34a4.6,4.6,0,1,0,0-9.2H558.549a4.6,4.6,0,1,0,0,9.2Z" transform="translate(-153.626 -135.074)" fill="#3f3d56"/>
    <path id="Path_367" data-name="Path 367" d="M559.049,453.737H664.84a4.6,4.6,0,0,0,0-9.2H559.049a4.6,4.6,0,0,0,0,9.2Z" transform="translate(-154.893 -126.276)" fill="#3f3d56"/>
    <path id="Path_368" data-name="Path 368" d="M559.549,470.237H665.34a4.6,4.6,0,1,0,0-9.2H559.549a4.6,4.6,0,1,0,0,9.2Z" transform="translate(-156.159 -117.478)" fill="#3f3d56"/>
    <path id="Path_369" data-name="Path 369" d="M485.049,486.737H705.83a4.6,4.6,0,0,0,0-9.2H485.049a4.6,4.6,0,0,0,0,9.2Z" transform="translate(-82.426 -108.68)" fill="#3f3d56"/>
    <path id="Path_370" data-name="Path 370" d="M485.549,503.237H706.33a4.6,4.6,0,0,0,0-9.2H485.549a4.6,4.6,0,0,0,0,9.2Z" transform="translate(-83.692 -99.883)" fill="#3f3d56"/>
    <path id="Path_371" data-name="Path 371" d="M486.049,519.737H706.83a4.6,4.6,0,1,0,0-9.2H486.049a4.6,4.6,0,0,0,0,9.2Z" transform="translate(-84.959 -91.085)" fill="#3f3d56"/>
    <path id="Path_372" data-name="Path 372" d="M487.615,489.366h85.859a7.539,7.539,0,0,0,3.655-.935h.021l.39-.235a7.635,7.635,0,0,0,3.6-6.5v-46a7.675,7.675,0,0,0-7.666-7.666H487.615a7.675,7.675,0,0,0-7.666,7.666v46A7.675,7.675,0,0,0,487.615,489.366Zm88.488-3.9-.22.135a4.454,4.454,0,0,1-2.409.693H487.615a4.6,4.6,0,0,1-4.6-4.6v-46a4.6,4.6,0,0,1,4.6-4.6h85.859a4.6,4.6,0,0,1,4.6,4.6v46a4.58,4.58,0,0,1-1.972,3.77Z" transform="translate(47.63 -135.074)" fill="#3f3d56"/>
  </g>
</svg>
