<svg xmlns="http://www.w3.org/2000/svg" width="256.961" height="234.89" viewBox="0 0 256.961 234.89">
  <g id="undraw_Documents_re_isxv" transform="translate(0)">
    <path id="Path_596" data-name="Path 596" d="M685.585,509.015,742.9,479.464a3.673,3.673,0,0,0,1.58-4.943l-3.546-6.877a3.674,3.674,0,0,0-4.943-1.58l-57.317,29.551a3.673,3.673,0,0,0-1.58,4.943l3.546,6.877a3.644,3.644,0,0,0,2.145,1.812,3.689,3.689,0,0,0,1.124.177A3.648,3.648,0,0,0,685.585,509.015Z" transform="translate(-563.748 -393.408)" fill="#6ba229"/>
    <path id="Path_597" data-name="Path 597" d="M766.8,495.407a3.651,3.651,0,0,0-2.828.074l-18.784,10.386a9.158,9.158,0,0,0-3.8,12.032l.235-.115-.236.115a9.165,9.165,0,0,0,11.258,4.635l20.371-7.12a3.669,3.669,0,0,0,1.873-4.842l-6.057-13.227a3.691,3.691,0,0,0-.389-.679A3.648,3.648,0,0,0,766.8,495.407Z" transform="translate(-627.484 -407.444)" fill="#2f2e41"/>
    <ellipse id="Ellipse_147" data-name="Ellipse 147" cx="28.056" cy="28.056" rx="28.056" ry="28.056" transform="translate(68.037 28.678)" fill="#6ba229"/>
    <path id="Path_598" data-name="Path 598" d="M847.434,707.05V642.563a3.674,3.674,0,0,0-3.67-3.67h-7.737a3.674,3.674,0,0,0-3.67,3.67V707.05a3.674,3.674,0,0,0,3.67,3.67h7.737A3.673,3.673,0,0,0,847.434,707.05Z" transform="translate(-747.898 -475.83)" fill="#6ba229"/>
    <path id="Path_599" data-name="Path 599" d="M815.434,707.05V642.563a3.674,3.674,0,0,0-3.67-3.67h-7.737a3.674,3.674,0,0,0-3.67,3.67V707.05a3.673,3.673,0,0,0,3.669,3.67h7.737A3.674,3.674,0,0,0,815.434,707.05Z" transform="translate(-699.123 -475.83)" fill="#6ba229"/>
    <path id="Path_600" data-name="Path 600" d="M826.276,439.7l-.029-1.048c1.951-.054,3.67-.177,4.962-1.121a3.223,3.223,0,0,0,1.248-2.374,1.842,1.842,0,0,0-.6-1.517c-.858-.724-2.238-.49-3.244-.029l-.868.4,1.664-12.157,1.039.142-1.415,10.341a3.7,3.7,0,0,1,3.5.5,2.868,2.868,0,0,1,.975,2.355,4.263,4.263,0,0,1-1.678,3.184C830.167,439.589,828.01,439.65,826.276,439.7Z" transform="translate(-730.772 -372.566)" fill="#2f2e41"/>
    <rect id="Rectangle_152" data-name="Rectangle 152" width="5.647" height="1.048" transform="translate(104.809 50.318)" fill="#2f2e41"/>
    <rect id="Rectangle_153" data-name="Rectangle 153" width="5.647" height="1.048" transform="translate(86.985 50.318)" fill="#2f2e41"/>
    <path id="Path_601" data-name="Path 601" d="M886.5,603.5l9.7-63.753a3.674,3.674,0,0,0-3.076-4.18l-7.649-1.164a3.674,3.674,0,0,0-4.18,3.076l-9.7,63.753a3.674,3.674,0,0,0,3.076,4.18l7.649,1.164a3.666,3.666,0,0,0,4.18-3.075Z" transform="translate(-817.25 -426.096)" fill="#6ba229"/>
    <path id="Path_602" data-name="Path 602" d="M887.55,557.407a3.652,3.652,0,0,0,1.6-2.331l2.631-21.3a9.158,9.158,0,0,0-7.5-10.146l-.046.258.046-.258a9.165,9.165,0,0,0-10.366,6.387l-6.207,20.668a3.67,3.67,0,0,0,2.818,4.361l14.261,2.87a3.693,3.693,0,0,0,.778.083,3.648,3.648,0,0,0,1.984-.589Z" transform="translate(-810.805 -420.923)" fill="#2f2e41"/>
    <path id="Path_603" data-name="Path 603" d="M730.2,592.355h74.976a4.456,4.456,0,0,0,3.981-6.458l-36.25-72.087A24.909,24.909,0,0,0,725.747,525v62.9a4.461,4.461,0,0,0,4.456,4.456Z" transform="translate(-654.211 -409.79)" fill="#2f2e41"/>
    <path id="Path_604" data-name="Path 604" d="M817.41,374.791c5.743,1.282,10.588,5.026,16.362,6.19a11.909,11.909,0,0,0,7.946-.787,8.283,8.283,0,0,0,3.845-4.487,12.382,12.382,0,0,0-1.975-11.712c-3.242-3.968-8.41-5.8-13.369-6.312-9.924-1.031-20.117,2.239-28.194,7.935-8.34,5.882-14.738,14.714-16.884,24.765a29,29,0,0,0,.925,16.263A20.721,20.721,0,0,0,796.43,417.94a20.344,20.344,0,0,0,3.547,1.321.787.787,0,0,1-.418,1.516,22.4,22.4,0,0,1-12.984-9.562,27.306,27.306,0,0,1-3.63-16.649c.916-11.061,7-21.227,15.5-28.187,8.169-6.686,18.736-10.754,29.36-10.431,5.329.162,10.859,1.515,15,5.026a14.111,14.111,0,0,1,4.9,12.47,11.306,11.306,0,0,1-2.482,5.921,10.231,10.231,0,0,1-6.568,3.392c-6.282.818-11.73-2.743-17.281-5.032a26.874,26.874,0,0,0-4.383-1.418c-.987-.22-.57-1.737.418-1.517Z" transform="translate(-722.31 -341.204)" fill="#2f2e41"/>
    <path id="Path_605" data-name="Path 605" d="M946.341,350.31c2.256-8.444-3.631-17.232-11.629-19.869a22.849,22.849,0,0,0-14.07.157,27.755,27.755,0,0,0-11.6,7.57c-7.011,7.459-10.117,17.526-11.57,27.451-1.5,10.248-.654,21.473-5.9,30.785a19.743,19.743,0,0,1-9.571,8.9,14.76,14.76,0,0,1-12.277-.458,11.78,11.78,0,0,1-2.467-1.8c-.738-.7.376-1.807,1.112-1.112,3.121,2.945,7.772,3.5,11.783,2.345,4.375-1.26,7.742-4.623,9.961-8.494,2.566-4.477,3.635-9.595,4.217-14.672.636-5.543.881-11.116,1.731-16.636,1.532-9.957,4.843-19.951,11.866-27.423a29.549,29.549,0,0,1,11.677-7.769,24.755,24.755,0,0,1,14.3-.722,19.5,19.5,0,0,1,10.75,7.229,18.179,18.179,0,0,1,3.708,11.814,16.032,16.032,0,0,1-.511,3.121.787.787,0,0,1-1.517-.418Z" transform="translate(-867.022 -327.838)" fill="#2f2e41"/>
    <g id="Group_454" data-name="Group 454" transform="translate(189.38 29.391)">
      <path id="Path_624" data-name="Path 624" d="M418.958,337.867a1.864,1.864,0,0,1,.893,1.591v.274h-.219v-.274a1.649,1.649,0,0,0-1.223-1.591Zm-26.936-.274h25.964a1.867,1.867,0,0,1,1.865,1.865v38.285a1.868,1.868,0,0,1-1.865,1.865H389.134a1.868,1.868,0,0,1-1.865-1.865V341.836Zm-4.533,40.15a1.647,1.647,0,0,0,1.646,1.646h28.851a1.648,1.648,0,0,0,1.646-1.646V339.458a1.649,1.649,0,0,0-1.223-1.591,1.631,1.631,0,0,0-.422-.055h-25.88l-4.616,4.121Zm31.469-39.876a1.864,1.864,0,0,1,.893,1.591v.274h-.219v-.274a1.649,1.649,0,0,0-1.223-1.591Z" transform="translate(-387.269 -337.593)" fill="#3f3d56"/>
      <path id="Path_625" data-name="Path 625" d="M639.381,341.943h3.008a1.874,1.874,0,0,0,1.894-1.849V337.7a.111.111,0,0,0-.223,0v2.393a1.653,1.653,0,0,1-1.671,1.631h-3.008a.109.109,0,1,0,0,.217Z" transform="translate(-639.27 -337.535)" fill="#3f3d56"/>
      <path id="Path_626" data-name="Path 626" d="M414.614,429.7h22.87a.8.8,0,0,0,0-1.6h-22.87a.8.8,0,1,0,0,1.6Z" transform="translate(-409.692 -411.832)" fill="#ccc"/>
      <path id="Path_627" data-name="Path 627" d="M414.614,395.7h11.335a.8.8,0,0,0,0-1.6H414.614a.8.8,0,0,0,0,1.6Z" transform="translate(-398.156 -381.242)" fill="#ccc"/>
      <path id="Path_628" data-name="Path 628" d="M414.614,496.7h22.87a.8.8,0,0,0,0-1.6h-22.87a.8.8,0,1,0,0,1.6Z" transform="translate(-409.692 -472.111)" fill="#ccc"/>
      <path id="Path_629" data-name="Path 629" d="M414.614,462.7h11.335a.8.8,0,0,0,0-1.6H414.614a.8.8,0,0,0,0,1.6Z" transform="translate(-398.156 -441.521)" fill="#ccc"/>
      <path id="Path_630" data-name="Path 630" d="M414.883,559.323h21.254a1.656,1.656,0,0,0,1.654-1.654v-8.421a1.656,1.656,0,0,0-1.654-1.654H414.883a1.656,1.656,0,0,0-1.654,1.654v8.421A1.656,1.656,0,0,0,414.883,559.323Z" transform="translate(-409.197 -520.684)" fill="#6ba229"/>
    </g>
    <g id="Group_455" data-name="Group 455" transform="translate(224.38 81.391)">
      <path id="Path_624-2" data-name="Path 624" d="M418.958,337.867a1.864,1.864,0,0,1,.893,1.591v.274h-.219v-.274a1.649,1.649,0,0,0-1.223-1.591Zm-26.936-.274h25.964a1.867,1.867,0,0,1,1.865,1.865v38.285a1.868,1.868,0,0,1-1.865,1.865H389.134a1.868,1.868,0,0,1-1.865-1.865V341.836Zm-4.533,40.15a1.647,1.647,0,0,0,1.646,1.646h28.851a1.648,1.648,0,0,0,1.646-1.646V339.458a1.649,1.649,0,0,0-1.223-1.591,1.631,1.631,0,0,0-.422-.055h-25.88l-4.616,4.121Zm31.469-39.876a1.864,1.864,0,0,1,.893,1.591v.274h-.219v-.274a1.649,1.649,0,0,0-1.223-1.591Z" transform="translate(-387.269 -337.593)" fill="#3f3d56"/>
      <path id="Path_625-2" data-name="Path 625" d="M639.381,341.943h3.008a1.874,1.874,0,0,0,1.894-1.849V337.7a.111.111,0,0,0-.223,0v2.393a1.653,1.653,0,0,1-1.671,1.631h-3.008a.109.109,0,1,0,0,.217Z" transform="translate(-639.27 -337.535)" fill="#3f3d56"/>
      <path id="Path_626-2" data-name="Path 626" d="M414.614,429.7h22.87a.8.8,0,0,0,0-1.6h-22.87a.8.8,0,1,0,0,1.6Z" transform="translate(-409.692 -411.832)" fill="#ccc"/>
      <path id="Path_627-2" data-name="Path 627" d="M414.614,395.7h11.335a.8.8,0,0,0,0-1.6H414.614a.8.8,0,0,0,0,1.6Z" transform="translate(-398.156 -381.242)" fill="#ccc"/>
      <path id="Path_628-2" data-name="Path 628" d="M414.614,496.7h22.87a.8.8,0,0,0,0-1.6h-22.87a.8.8,0,1,0,0,1.6Z" transform="translate(-409.692 -472.111)" fill="#ccc"/>
      <path id="Path_629-2" data-name="Path 629" d="M414.614,462.7h11.335a.8.8,0,0,0,0-1.6H414.614a.8.8,0,0,0,0,1.6Z" transform="translate(-398.156 -441.521)" fill="#ccc"/>
      <path id="Path_630-2" data-name="Path 630" d="M414.883,559.323h21.254a1.656,1.656,0,0,0,1.654-1.654v-8.421a1.656,1.656,0,0,0-1.654-1.654H414.883a1.656,1.656,0,0,0-1.654,1.654v8.421A1.656,1.656,0,0,0,414.883,559.323Z" transform="translate(-409.197 -520.684)" fill="#6ba229"/>
    </g>
    <g id="Group_456" data-name="Group 456" transform="translate(176.38 108.391)">
      <path id="Path_624-3" data-name="Path 624" d="M418.958,337.867a1.864,1.864,0,0,1,.893,1.591v.274h-.219v-.274a1.649,1.649,0,0,0-1.223-1.591Zm-26.936-.274h25.964a1.867,1.867,0,0,1,1.865,1.865v38.285a1.868,1.868,0,0,1-1.865,1.865H389.134a1.868,1.868,0,0,1-1.865-1.865V341.836Zm-4.533,40.15a1.647,1.647,0,0,0,1.646,1.646h28.851a1.648,1.648,0,0,0,1.646-1.646V339.458a1.649,1.649,0,0,0-1.223-1.591,1.631,1.631,0,0,0-.422-.055h-25.88l-4.616,4.121Zm31.469-39.876a1.864,1.864,0,0,1,.893,1.591v.274h-.219v-.274a1.649,1.649,0,0,0-1.223-1.591Z" transform="translate(-387.269 -337.593)" fill="#3f3d56"/>
      <path id="Path_625-3" data-name="Path 625" d="M639.381,341.943h3.008a1.874,1.874,0,0,0,1.894-1.849V337.7a.111.111,0,0,0-.223,0v2.393a1.653,1.653,0,0,1-1.671,1.631h-3.008a.109.109,0,1,0,0,.217Z" transform="translate(-639.27 -337.535)" fill="#3f3d56"/>
      <path id="Path_626-3" data-name="Path 626" d="M414.614,429.7h22.87a.8.8,0,0,0,0-1.6h-22.87a.8.8,0,1,0,0,1.6Z" transform="translate(-409.692 -411.832)" fill="#ccc"/>
      <path id="Path_627-3" data-name="Path 627" d="M414.614,395.7h11.335a.8.8,0,0,0,0-1.6H414.614a.8.8,0,0,0,0,1.6Z" transform="translate(-398.156 -381.242)" fill="#ccc"/>
      <path id="Path_628-3" data-name="Path 628" d="M414.614,496.7h22.87a.8.8,0,0,0,0-1.6h-22.87a.8.8,0,1,0,0,1.6Z" transform="translate(-409.692 -472.111)" fill="#ccc"/>
      <path id="Path_629-3" data-name="Path 629" d="M414.614,462.7h11.335a.8.8,0,0,0,0-1.6H414.614a.8.8,0,0,0,0,1.6Z" transform="translate(-398.156 -441.521)" fill="#ccc"/>
      <path id="Path_630-3" data-name="Path 630" d="M414.883,559.323h21.254a1.656,1.656,0,0,0,1.654-1.654v-8.421a1.656,1.656,0,0,0-1.654-1.654H414.883a1.656,1.656,0,0,0-1.654,1.654v8.421A1.656,1.656,0,0,0,414.883,559.323Z" transform="translate(-409.197 -520.684)" fill="#6ba229"/>
    </g>
  </g>
</svg>
