<svg xmlns="http://www.w3.org/2000/svg" width="173.336" height="291.694" viewBox="0 0 173.336 291.694">
  <g id="undraw_team_up_ip2x" transform="translate(-100.336 -30.243)">
    <path id="Path_534" data-name="Path 534" d="M468.721,262.071h31.51a1.71,1.71,0,0,0,1.708-1.708V220.5a1.71,1.71,0,0,0-1.708-1.708h-31.51a1.71,1.71,0,0,0-1.708,1.708v39.862a1.71,1.71,0,0,0,1.708,1.708Zm31.51-42.9a1.33,1.33,0,0,1,1.329,1.329v39.862a1.33,1.33,0,0,1-1.329,1.329h-31.51a1.33,1.33,0,0,1-1.329-1.329V220.5a1.33,1.33,0,0,1,1.329-1.329Z" transform="translate(-228.268 -107.535)" fill="#3f3d56"/>
    <path id="Path_535" data-name="Path 535" d="M498.914,269.487h6.936a.855.855,0,0,0,.854-.854v-8.185a.855.855,0,0,0-.854-.854h-6.936a.855.855,0,0,0-.854.854v8.185A.855.855,0,0,0,498.914,269.487Z" transform="translate(-240.085 -139.07)" fill="#6ba229"/>
    <path id="Path_536" data-name="Path 536" d="M558.25,286.2h6.936a.855.855,0,0,0,.854-.854v-8.185a.855.855,0,0,0-.854-.854H558.25a.855.855,0,0,0-.854.854v8.185A.855.855,0,0,0,558.25,286.2Z" transform="translate(-312.898 -151.988)" fill="#ccc"/>
    <path id="Path_537" data-name="Path 537" d="M510.614,337.18h6.936a.855.855,0,0,0,.854-.854v-8.185a.855.855,0,0,0-.854-.854h-6.936a.855.855,0,0,0-.854.854v8.185A.855.855,0,0,0,510.614,337.18Z" transform="translate(-254.443 -191.387)" fill="#e9e9e9"/>
    <path id="Path_541" data-name="Path 541" d="M714.689,546.116h39.848a1.779,1.779,0,0,0,1.778,1.779H795.43a9.163,9.163,0,0,1,1.5,1.423,8.83,8.83,0,0,1,2.063,5.691v1.423a8.9,8.9,0,0,1-8.893,8.893H714.69a8.9,8.9,0,0,1-8.893-8.893v-1.423a8.9,8.9,0,0,1,8.893-8.893Z" transform="translate(-602.864 -308.734)" fill="#3f3d56"/>
    <rect id="Rectangle_144" data-name="Rectangle 144" width="9.249" height="65.452" transform="translate(144.555 256.238)" fill="#3f3d56"/>
    <path id="Path_542" data-name="Path 542" d="M727.292,660.543c0,1,14.015.387,31.3.387s31.3.613,31.3-.387-14.015-8.924-31.3-8.924S727.292,659.544,727.292,660.543Z" transform="translate(-609.06 -339.178)" fill="#3f3d56"/>
    <path id="Path_543" data-name="Path 543" d="M692.92,543.464l1.551-9.7a4.677,4.677,0,0,1,5.35-3.877l16,2.554,27.4,4.375,8.914,1.423H732.8a1.779,1.779,0,0,0-1.779,1.779v1.4a1.779,1.779,0,0,0,1.779,1.779h49.21a4.5,4.5,0,0,1,1.729,1.423,4.615,4.615,0,0,1,.882,3.529l-.441,2.76-.534,3.351-.576,3.6a4.668,4.668,0,0,1-5.336,3.87L765.024,559.7l-36.667-5.855L696.8,548.807a4.686,4.686,0,0,1-3.877-5.343Z" transform="translate(-579.352 -304.032)" fill="#6ba229"/>
    <path id="Path_544" data-name="Path 544" d="M694.542,550.039a4.522,4.522,0,0,1,1.8-1.423h13.6a4.5,4.5,0,0,1,1.807,1.423,4.6,4.6,0,0,1,.975,2.839V607.1a4.667,4.667,0,0,1-4.66,4.66h-9.839a4.667,4.667,0,0,1-4.66-4.66V552.878a4.613,4.613,0,0,1,.975-2.839Z" transform="translate(-507.895 -309.455)" fill="#6ba229"/>
    <path id="Path_545" data-name="Path 545" d="M667.39,417.016l.092-.121,6.1-7.52a4.494,4.494,0,0,1,1.16-1.017,3.42,3.42,0,0,1,.754-.384,4.482,4.482,0,0,1,1.217-.3,4.726,4.726,0,0,1,.84-.014.023.023,0,0,1,.014.007,4.614,4.614,0,0,1,2.575,1.025l12.528,10.159,16.1,13.062L732.8,451.407l1.75,1.423h-30.4l-1.757-1.423-5.813-4.717-.412-.327L668.095,423.59l-.022-.014a4.594,4.594,0,0,1-1.331-1.743,4.7,4.7,0,0,1-.37-1.4,4.625,4.625,0,0,1,1.017-3.415Z" transform="translate(-510.353 -268.776)" fill="#6ba229"/>
    <path id="Path_546" data-name="Path 546" d="M702.253,416.872a11.6,11.6,0,0,1,2.533-5.193,11.466,11.466,0,0,1,4.731-3.344c.285-.107.562-.206.847-.285a12.208,12.208,0,0,1,1.964-.413.022.022,0,0,1,.014.007,11.607,11.607,0,0,1,8.395,2.319l21.67,16.562a4.6,4.6,0,0,1,1.53,3.251,4.72,4.72,0,0,1-.391,2.113c-.071.149-.149.3-.235.441a4.1,4.1,0,0,1-.6.8l-3.472,3.9-8.075,9.057-.227.256-.52.59a4.659,4.659,0,0,1-6.595.292l-18.689-20.077a11.534,11.534,0,0,1-2.269-3.578,11.713,11.713,0,0,1-.612-6.695Z" transform="translate(-545.124 -268.753)" fill="#2f2e41"/>
    <ellipse id="Ellipse_137" data-name="Ellipse 137" cx="35.659" cy="35.659" rx="35.659" ry="35.659" transform="translate(113.208 51.041)" fill="#6ba229"/>
    <path id="Path_547" data-name="Path 547" d="M662.174,536.563l.975-6.118.576-3.593a4.669,4.669,0,0,1,5.343-3.87l25.917,4.133,7.029,1.124,1.423.228v7.776H680.13a1.779,1.779,0,0,0-1.779,1.779v1.4a1.779,1.779,0,0,0,1.778,1.779h73.754c0,.014-.007.028-.007.043l-.441,2.76-1.11,6.944a4.667,4.667,0,0,1-5.336,3.87l-12.714-2.028-2.767-.441-.534-.085-18.625-2.974-12.671-2.028-20.1-3.208-.3-.05L666.051,541.9A4.673,4.673,0,0,1,662.174,536.563Z" transform="translate(-526.679 -302.041)" fill="#6ba229"/>
    <path id="Path_548" data-name="Path 548" d="M718.007,473.426c0,29.069,2.953,46.457,48.485,41.477l.185-.021a135.205,135.205,0,0,0,24-4.589,71.265,71.265,0,0,0,11.838-4.638c.9-.455,1.757-.932,2.6-1.423H771.122a1.779,1.779,0,0,1-1.779-1.779v-1.4a1.779,1.779,0,0,1,1.778-1.779h23.307V454.339a5.222,5.222,0,0,1,5.215-5.215h-.96c-.164-.47-.327-.946-.505-1.423-1.729-4.8-1.559-8.58-4.013-13.282-3.372-6.488-3.393-13.012-7.826-18.5-3.3-4.077,6.809-8.523,3.1-11.582-7.136-5.891-14.9-9.533-22.787-9.533C737.578,394.806,718.007,444.357,718.007,473.426Z" transform="translate(-617.671 -265.07)" fill="#2f2e41"/>
    <path id="Path_549" data-name="Path 549" d="M760.394,343.689l-.037-1.332c2.479-.069,4.665-.224,6.307-1.424a4.1,4.1,0,0,0,1.587-3.017,2.341,2.341,0,0,0-.768-1.929c-1.09-.921-2.844-.623-4.123-.036l-1.1.506L764.372,321l1.32.181-1.8,13.143a4.7,4.7,0,0,1,4.45.64,3.645,3.645,0,0,1,1.239,2.993,5.418,5.418,0,0,1-2.132,4.046C765.34,343.55,762.6,343.627,760.394,343.689Z" transform="translate(-612.277 -243.774)" fill="#2f2e41"/>
    <rect id="Rectangle_145" data-name="Rectangle 145" width="7.177" height="1.333" transform="translate(159.944 78.545)" fill="#2f2e41"/>
    <rect id="Rectangle_146" data-name="Rectangle 146" width="7.177" height="1.333" transform="translate(137.291 78.545)" fill="#2f2e41"/>
    <path id="Path_550" data-name="Path 550" d="M735.026,432.533l2.825-1.964,5.258-3.65a4.669,4.669,0,0,1,6.488,1.174l17.138,24.665,15.957,22.965,1.423,2.049V508.3h-.128a4.647,4.647,0,0,1-2.91-1.423,4.161,4.161,0,0,1-.449-.548l-4.966-7.157-12.272-17.665-12.72-18.3-1.21-1.743-15.595-22.446a4.036,4.036,0,0,1-.235-.37,3.714,3.714,0,0,1-.192-.377,4.66,4.66,0,0,1,1.586-5.741Z" transform="translate(-607.357 -274.098)" fill="#6ba229"/>
    <path id="Path_551" data-name="Path 551" d="M761.377,420.644a11.454,11.454,0,0,1,1.58-.868,11.638,11.638,0,0,1,14.214,3.671L793.363,445.4a4.642,4.642,0,0,1-1.551,6.431l-14.741,9.249-.185.114-.74.462a4.676,4.676,0,0,1-6.41-1.565L758.3,437.4l-.192-.377-.007-.007-.7-1.416A11.641,11.641,0,0,1,761.377,420.644Z" transform="translate(-633.758 -271.97)" fill="#2f2e41"/>
    <path id="Path_552" data-name="Path 552" d="M681.906,548.616V602.18a4.667,4.667,0,0,1-4.66,4.66h-9.839a4.667,4.667,0,0,1-4.66-4.66V548.616Z" transform="translate(-455.149 -309.455)" fill="#6ba229"/>
    <path id="Path_553" data-name="Path 553" d="M605.489,519.3h21.884V475.794a6.645,6.645,0,0,1,6.638-6.638h81.153a6.646,6.646,0,0,1,6.645,6.636v44.68a6.646,6.646,0,0,1-6.645,6.638H605.489c-.114,0-.221-.007-.327-.014s-.2-.028-.3-.043a3.213,3.213,0,0,1-2.576-3.145v-1.4a3.2,3.2,0,0,1,3.2-3.2Zm0,6.382H715.163a5.224,5.224,0,0,0,5.222-5.215V475.794a5.224,5.224,0,0,0-5.222-5.215H634.01a5.222,5.222,0,0,0-5.215,5.215v44.934H605.489a1.779,1.779,0,0,0-1.779,1.779v1.4A1.779,1.779,0,0,0,605.489,525.686Z" transform="translate(-452.038 -286.525)" fill="#3f3d56"/>
    <ellipse id="Ellipse_138" data-name="Ellipse 138" cx="5.471" cy="5.471" rx="5.471" ry="5.471" transform="translate(217.081 206.137)" fill="#6ba229"/>
    <rect id="Rectangle_147" data-name="Rectangle 147" width="1.423" height="6.403" transform="translate(175.356 233.533)" fill="#3f3d56"/>
    <path id="Path_558" data-name="Path 558" d="M749.863,286.38a27.047,27.047,0,0,0,20.308.706,26.675,26.675,0,0,0,17.1-23.67l1.606.921L782.1,269.1a1.073,1.073,0,0,1-1.568-.638,14.284,14.284,0,0,0-6.958-9.046,18.64,18.64,0,0,0-12.4-2.063c-8.8,1.427-16.715,7.291-21.867,14.4a39.342,39.342,0,0,0-6.148,12.833,1.068,1.068,0,0,1-2.058-.567,41.584,41.584,0,0,1,15.315-22.412c7.645-5.676,18.347-9.107,27.339-4.525a16.587,16.587,0,0,1,8.835,10.811l-1.568-.638,6.77-4.763a1.074,1.074,0,0,1,1.606.921,29.218,29.218,0,0,1-8.359,19.132,28.4,28.4,0,0,1-19.873,8.313,28.9,28.9,0,0,1-12.384-2.637c-1.247-.571-.164-2.411,1.077-1.843Z" transform="translate(-611.257 -224.715)" fill="#2f2e41"/>
  </g>
</svg>
