<svg xmlns="http://www.w3.org/2000/svg" width="181.205" height="250.966" viewBox="0 0 181.205 250.966">
  <g id="undraw_Celebrating_re_fsbq" transform="translate(0 0)">
    <path id="Path_518" data-name="Path 518" d="M480.975,538.713a4.036,4.036,0,0,1-4.05-.742l-6.408-5.589a4.037,4.037,0,0,1-.389-5.69l46.58-53.409a4.037,4.037,0,0,1,5.69-.389l6.408,5.589a4.037,4.037,0,0,1,.389,5.69l-46.58,53.41A4.008,4.008,0,0,1,480.975,538.713Z" transform="translate(-422.619 -358.46)" fill="#6ba229"/>
    <g id="Group_438" data-name="Group 438" transform="translate(135.956 180.338) rotate(-115)">
      <path id="Path_519" data-name="Path 519" d="M67.013,0a4.051,4.051,0,0,1,1.235.194A4,4,0,0,1,70.6,2.186l3.9,7.557a4.037,4.037,0,0,1-1.736,5.432L9.776,47.65a4.037,4.037,0,0,1-5.432-1.736l-3.9-7.557a4.037,4.037,0,0,1,1.736-5.432L65.173.449A4.006,4.006,0,0,1,67.013,0Z" transform="translate(0 1.829)" fill="#6ba229"/>
      <path id="Path_520" data-name="Path 520" d="M34.6,0a4.044,4.044,0,0,1,3.612,2.227l3.815,7.6a4.026,4.026,0,0,1,.313,2.771c-.025.1-.055.206-.089.308h0c-.077.232-.161.594-.258,1.013-.309,1.337-.694,3-1.478,3.394L12.841,34.087A4.03,4.03,0,0,1,7.408,32.3L.427,17.914a4.037,4.037,0,0,1,1.8-5.41L32.826.422A3.949,3.949,0,0,1,34.6,0Z" transform="translate(33.546 0)" fill="#2f2e41"/>
    </g>
    <ellipse id="Ellipse_82" data-name="Ellipse 82" cx="30.832" cy="30.832" rx="30.832" ry="30.832" transform="translate(78.919 24.349)" fill="#6ba229"/>
    <path id="Path_521" data-name="Path 521" d="M559.241,651.689h-8.5a4.037,4.037,0,0,1-4.033-4.033v-72.02a4.037,4.037,0,0,1,4.033-4.033h8.5a4.037,4.037,0,0,1,4.033,4.033v72.02a4.037,4.037,0,0,1-4.033,4.033Z" transform="translate(-455.501 -400.724)" fill="#6ba229"/>
    <path id="Path_522" data-name="Path 522" d="M598.758,600.444a4.03,4.03,0,0,1-3.286-1.686l-41.218-57.648a4.037,4.037,0,0,1,.935-5.626l6.917-4.945a4.037,4.037,0,0,1,5.626.935l41.218,57.648a4.037,4.037,0,0,1-.935,5.626l-6.917,4.946A4.011,4.011,0,0,1,598.758,600.444Z" transform="translate(-458.382 -382.998)" fill="#6ba229"/>
    <path id="Path_523" data-name="Path 523" d="M603.75,672.636a5.551,5.551,0,0,1-2.435-.609l-7.612-3.79c-1.99-.991-3.087-2.847-2.445-4.137l19.618-39.4c.642-1.29,2.784-1.534,4.775-.543l7.612,3.79a5.367,5.367,0,0,1,2.182,1.9,2.279,2.279,0,0,1,.263,2.241l-19.618,39.4A2.471,2.471,0,0,1,603.75,672.636Z" transform="translate(-474.308 -422.741)" fill="#6ba229"/>
    <path id="Path_524" data-name="Path 524" d="M536.361,498.335a4.044,4.044,0,0,1-4.223-.914L520.6,486.353a4.032,4.032,0,0,1-.043-5.705l24.517-21.2c.6-.61,2.3-.463,3.667-.345.429.037.8.069,1.044.067.107,0,.214,0,.32.011h0a4.026,4.026,0,0,1,2.54,1.151L558.7,466.3a4.038,4.038,0,0,1,.04,5.7l-20.885,25.356A4.068,4.068,0,0,1,536.361,498.335Z" transform="translate(-443.925 -352.991)" fill="#2f2e41"/>
    <path id="Path_525" data-name="Path 525" d="M571.75,376.175l-.032-1.152c2.144-.06,4.033-.194,5.453-1.232a3.542,3.542,0,0,0,1.372-2.609,2.024,2.024,0,0,0-.664-1.668c-.943-.8-2.459-.538-3.565-.031l-.953.437,1.828-13.36,1.141.156-1.555,11.364a4.067,4.067,0,0,1,3.847.554,3.152,3.152,0,0,1,1.072,2.588,4.686,4.686,0,0,1-1.844,3.5C576.027,376.056,573.655,376.122,571.75,376.175Z" transform="translate(-466.103 -309.566)" fill="#2f2e41"/>
    <rect id="Rectangle_139" data-name="Rectangle 139" width="6.205" height="1.152" transform="translate(115.872 48.131)" fill="#2f2e41"/>
    <rect id="Rectangle_140" data-name="Rectangle 140" width="6.205" height="1.152" transform="translate(96.285 48.131)" fill="#2f2e41"/>
    <path id="Path_526" data-name="Path 526" d="M589.343,527.009H493.433a3.736,3.736,0,0,1-3.243-5.617l47.955-83.06a3.707,3.707,0,0,1,3.243-1.872h0a3.707,3.707,0,0,1,3.243,1.872l47.955,83.06a3.745,3.745,0,0,1-3.243,5.617Z" transform="translate(-431.328 -343.436)" fill="#2f2e41"/>
    <path id="Path_527" data-name="Path 527" d="M500.47,298.957c-3.419-13.7-16.672-24.228-30.872-23.966A32.706,32.706,0,0,0,450.265,282a31.248,31.248,0,0,0-7.09,7.757,39.488,39.488,0,0,0-4.533,10.916c-2.12,7.69-3.119,16.391-8.5,22.671a23.629,23.629,0,0,1-17.878,8.043,22.075,22.075,0,0,1-17.453-9.012c-4.05-5.4-6.043-12.866-3.7-19.382,1.148-3.2,3.617-6.218,7.147-6.751a8.331,8.331,0,0,1,8.249,3.948,8.2,8.2,0,0,1-.909,8.961,8.072,8.072,0,0,1-12.358-.341c-.691-.872-1.915.351-1.231,1.214a9.99,9.99,0,0,0,9.125,3.486,9.326,9.326,0,0,0,7.432-6.21,9.47,9.47,0,0,0-1.728-9.572,10.133,10.133,0,0,0-9.413-3.084c-3.646.772-6.293,3.77-7.667,7.093a19.794,19.794,0,0,0-1.031,10.859,25.442,25.442,0,0,0,11.646,17.157,23.984,23.984,0,0,0,20.56,1.869,25.2,25.2,0,0,0,9.027-5.558,27.017,27.017,0,0,0,6.218-9.923c3.04-7.96,3.485-16.866,7.787-24.348a30.641,30.641,0,0,1,16.667-13.478,28.653,28.653,0,0,1,21.265,1.021,31.288,31.288,0,0,1,15.148,15.04A28.005,28.005,0,0,1,498.8,299.4a.865.865,0,0,0,1.669-.447Z" transform="translate(-388.389 -274.986)" fill="#2f2e41"/>
    <path id="Path_528" data-name="Path 528" d="M579.089,444.141H566.414a3.749,3.749,0,0,1-3.745-3.745v-1.152a3.749,3.749,0,0,1,3.745-3.745h12.674a3.749,3.749,0,0,1,3.745,3.745V440.4A3.749,3.749,0,0,1,579.089,444.141Z" transform="translate(-462.268 -343.029)" fill="#2f2e41"/>
  </g>
</svg>
