<svg xmlns="http://www.w3.org/2000/svg" width="60.001" height="60.001" viewBox="0 0 60.001 60.001">
  <g id="wage" transform="translate(0 0)">
    <path id="Path_412" data-name="Path 412" d="M137.291,340.1v1.16l5.591,7.116,5.591-7.116V340.1a14.049,14.049,0,0,1-11.182,0Z" transform="translate(-121.202 -300.242)" fill="#fff"/>
    <path id="Path_413" data-name="Path 413" d="M116.094,157.681v-4.815a12.323,12.323,0,0,1-1.758.128,11.835,11.835,0,0,1-9.475-4.688H97.344A12.32,12.32,0,0,1,95,148.081v9.6a10.547,10.547,0,0,0,21.094,0Z" transform="translate(-83.867 -130.728)" fill="#fff"/>
    <path id="Path_414" data-name="Path 414" d="M48.789,14.062H58.25l.024.047a8.385,8.385,0,0,0,9.266,4.462V11.132a7.617,7.617,0,0,0-7.617-7.617H52.3A15.92,15.92,0,0,1,42.813.351a1.758,1.758,0,0,0-2.1,0A1.81,1.81,0,0,0,40,1.808V5.273A8.789,8.789,0,0,0,48.789,14.062Z" transform="translate(-35.312 0)" fill="#fff"/>
    <path id="Path_415" data-name="Path 415" d="M416.31,416.338V420.1a2.422,2.422,0,0,0,1.16-1.68A1.814,1.814,0,0,0,416.31,416.338Z" transform="translate(-367.523 -367.548)" fill="#fff"/>
    <path id="Path_416" data-name="Path 416" d="M390.759,365.954a1.214,1.214,0,0,0,.3,1.176c.1.077.205.152.321.226V364.9A1.746,1.746,0,0,0,390.759,365.954Z" transform="translate(-344.938 -322.142)" fill="#fff"/>
    <path id="Path_417" data-name="Path 417" d="M31.875,365.508a15.739,15.739,0,0,1,.99-5.508H30.821l-7.759,9.875a1.758,1.758,0,0,1-2.764,0L12.539,360H9.961A9.961,9.961,0,0,0,0,369.961v6.094a1.758,1.758,0,0,0,1.758,1.758H37.764A15.8,15.8,0,0,1,31.875,365.508Z" transform="translate(0 -317.812)" fill="#fff"/>
    <path id="Path_418" data-name="Path 418" d="M314.3,302a12.3,12.3,0,1,0,12.3,12.3A12.3,12.3,0,0,0,314.3,302Zm4.562,15.872a4.766,4.766,0,0,1-3.471,3.8v.839a1.172,1.172,0,0,1-2.344,0v-.727a5.673,5.673,0,0,1-2.842-1.065,1.172,1.172,0,1,1,1.283-1.962,3.554,3.554,0,0,0,1.559.669v-4.95a8.652,8.652,0,0,1-1.767-1.033,3.507,3.507,0,0,1-1.159-3.454,3.948,3.948,0,0,1,2.707-3.095c.074-.022.146-.042.219-.062V306.1a1.172,1.172,0,1,1,2.344,0v.6a4.069,4.069,0,0,1,2.331,1.2,1.172,1.172,0,0,1-1.76,1.547,1.614,1.614,0,0,0-.571-.338V312.9c.208.077.416.152.62.224a4.194,4.194,0,0,1,2.851,4.745Z" transform="translate(-266.609 -266.609)" fill="#fff"/>
    <path id="Path_419" data-name="Path 419" d="M308.516,163.516A3.516,3.516,0,0,0,305,160v7.031A3.516,3.516,0,0,0,308.516,163.516Z" transform="translate(-269.257 -141.25)" fill="#fff"/>
    <path id="Path_420" data-name="Path 420" d="M38.516,167.031V160a3.516,3.516,0,0,0,0,7.031Z" transform="translate(-30.898 -141.25)" fill="#fff"/>
  </g>
</svg>
