<svg xmlns="http://www.w3.org/2000/svg" width="20" height="18.291" viewBox="0 0 20 18.291">
  <g id="wallet_1_" data-name="wallet (1)" transform="translate(0 -21.668)">
    <path id="Path_445" data-name="Path 445" d="M331.9,250.212a1.631,1.631,0,0,0,1.629,1.629h5.284v-3.259h-5.284A1.631,1.631,0,0,0,331.9,250.212Zm2.52.048a.657.657,0,1,1-.657-.657A.657.657,0,0,1,334.418,250.26Z" transform="translate(-318.812 -217.968)" fill="#6ba229"/>
    <path id="Path_446" data-name="Path 446" d="M14.716,102.929a2.891,2.891,0,0,1,0-5.782H20v-2.2a2.7,2.7,0,0,0-2.7-2.7H2.7a2.7,2.7,0,0,0-2.7,2.7v10.107a2.7,2.7,0,0,0,2.7,2.7H17.3a2.7,2.7,0,0,0,2.7-2.7v-2.123Z" transform="translate(0 -67.794)" fill="#6ba229"/>
    <path id="Path_447" data-name="Path 447" d="M2.774,23.189c15.868,0,14.731-.013,15.079.029a2.7,2.7,0,0,0-2.443-1.55H2.774a2.7,2.7,0,0,0-2.7,2.584A3.948,3.948,0,0,1,2.774,23.189Z" transform="translate(-0.073 0)" fill="#6ba229"/>
  </g>
</svg>
