<svg xmlns="http://www.w3.org/2000/svg" width="60.373" height="60.019" viewBox="0 0 60.373 60.019">
  <g id="world" transform="translate(0 -1.5)">
    <g id="Group_11" data-name="Group 11" transform="translate(0 1.5)">
      <path id="Path_27" data-name="Path 27" d="M54.307,34.423a25.317,25.317,0,0,0-5.6-24.852c-.016-.019-.034-.037-.051-.055-.191-.2-.385-.406-.583-.6a25.268,25.268,0,0,0-36.242.5,1.173,1.173,0,0,0-.233.251,25.3,25.3,0,0,0-5.533,24.76A7.2,7.2,0,0,0,0,41.525v12.8a7.2,7.2,0,0,0,7.189,7.191H24.884a1.179,1.179,0,1,0,0-2.358H7.189a4.837,4.837,0,0,1-4.831-4.833v-12.8a4.837,4.837,0,0,1,4.831-4.833h46a4.837,4.837,0,0,1,4.831,4.833v12.8a4.837,4.837,0,0,1-4.831,4.833H35.476a1.179,1.179,0,1,0,0,2.358H53.184a7.2,7.2,0,0,0,7.189-7.191v-12.8a7.2,7.2,0,0,0-6.066-7.1Zm-11.053-.088a45.6,45.6,0,0,0,.593-6.355h9.244a22.817,22.817,0,0,1-1.239,6.355Zm-11.89,0V27.979H41.487a42.989,42.989,0,0,1-.625,6.355Zm-11.855,0a43.234,43.234,0,0,1-.626-6.355H29.006v6.355Zm-10.991,0a22.808,22.808,0,0,1-1.236-6.355h9.241a45.779,45.779,0,0,0,.594,6.355Zm4.32-22.525a30.77,30.77,0,0,0,5.534,2.122,42.646,42.646,0,0,0-1.849,11.689H7.282A22.848,22.848,0,0,1,12.838,11.81ZM53.091,25.621H43.847A42.645,42.645,0,0,0,42,13.932a30.82,30.82,0,0,0,5.537-2.122A22.846,22.846,0,0,1,53.091,25.621ZM29.006,13.1a42.848,42.848,0,0,1-7.519-.853c.282-.682.585-1.338.909-1.964,1.852-3.575,4.165-5.763,6.611-6.3V13.1Zm0,2.359V25.621H18.881A40.067,40.067,0,0,1,20.665,14.5a44.816,44.816,0,0,0,8.341.963Zm2.358,0A44.825,44.825,0,0,0,39.7,14.5a40.067,40.067,0,0,1,1.783,11.121H31.364Zm0-2.359V3.988c2.446.535,4.759,2.723,6.611,6.3.324.625.627,1.282.909,1.964a42.856,42.856,0,0,1-7.519.853Zm9.837-1.41c-.346-.869-.724-1.7-1.133-2.491a19.457,19.457,0,0,0-2.913-4.259,22.95,22.95,0,0,1,8.656,5.08A29.565,29.565,0,0,1,41.2,11.693ZM20.3,9.2c-.409.789-.786,1.622-1.132,2.491a29.535,29.535,0,0,1-4.608-1.67,22.944,22.944,0,0,1,8.653-5.08A19.465,19.465,0,0,0,20.3,9.2Z" transform="translate(0 -1.5)" fill="#fff"/>
      <path id="Path_28" data-name="Path 28" d="M64.25,342.668v6.722l-5.458-7.421a1.179,1.179,0,0,0-2.129.7v10.315a1.179,1.179,0,1,0,2.358,0v-6.722l5.458,7.421a1.179,1.179,0,0,0,2.129-.7V342.668a1.179,1.179,0,1,0-2.358,0Z" transform="translate(-49.982 -301.399)" fill="#fff"/>
      <path id="Path_29" data-name="Path 29" d="M173.108,343.847a1.179,1.179,0,0,0,0-2.358h-4.773a1.179,1.179,0,0,0-1.179,1.179v10.315a1.179,1.179,0,0,0,1.179,1.179h4.773a1.179,1.179,0,1,0,0-2.358h-3.594v-2.8h3.594a1.179,1.179,0,1,0,0-2.358h-3.594v-2.8Z" transform="translate(-147.446 -301.399)" fill="#fff"/>
      <path id="Path_30" data-name="Path 30" d="M262.494,353.784a1.179,1.179,0,0,0,2.045-.8V342.668a1.179,1.179,0,1,0-2.358,0v7.3l-2.14-2.313c-.012-.013-.023-.024-.034-.033l-.031-.032a1.179,1.179,0,0,0-1.666.065l-2.14,2.313v-7.3a1.179,1.179,0,1,0-2.358,0v10.315a1.179,1.179,0,0,0,2.045.8l3.319-3.588Z" transform="translate(-223.883 -301.399)" fill="#fff"/>
      <path id="Path_31" data-name="Path 31" d="M377.152,351.805h-5.01a1.179,1.179,0,1,0,0,2.358h5.01a3.757,3.757,0,0,0,0-7.514h-2.433a1.4,1.4,0,0,1,0-2.8h5.01a1.179,1.179,0,0,0,0-2.358h-5.01a3.759,3.759,0,0,0,0,7.517h2.433a1.4,1.4,0,0,1,0,2.8Z" transform="translate(-327.221 -301.4)" fill="#fff"/>
      <path id="Path_32" data-name="Path 32" d="M247.136,490.5a1.179,1.179,0,1,0,0,2.358h0a1.179,1.179,0,0,0,0-2.358Z" transform="translate(-216.955 -432.839)" fill="#fff"/>
    </g>
  </g>
</svg>
